<svg width="66" height="57" viewBox="0 0 66 57" fill="none" xmlns="http://www.w3.org/2000/svg">
<g clip-path="url(#clip0_4139_1601)">
<g opacity="0.5">
<path d="M54.7056 16.8786C47.0922 8.93372 35.5474 4.25686 24.6459 7.98424C15.5779 11.0804 8.07912 18.7504 4.00166 27.2975C1.13302 33.3127 -0.456562 41.1057 1.29013 47.6616C2.80578 53.3476 7.64845 55.8759 13.1861 56.2811C21.9436 56.9231 30.7325 55.9935 39.4955 56.1581C45.7152 56.2738 55.2065 58.5254 60.7515 54.912C65.9916 51.4975 65.6645 44.0608 65.0896 38.6045C64.2357 30.4643 60.3024 22.722 54.7056 16.8786Z" fill="#BCD0E3"/>
<path opacity="0.7" d="M54.7056 16.8786C47.0922 8.93372 35.5474 4.25686 24.6459 7.98424C15.5779 11.0804 8.07912 18.7504 4.00166 27.2975C1.13302 33.3127 -0.456562 41.1057 1.29013 47.6616C2.80578 53.3476 7.64845 55.8759 13.1861 56.2811C21.9436 56.9231 30.7325 55.9935 39.4955 56.1581C45.7152 56.2738 55.2065 58.5254 60.7515 54.912C65.9916 51.4975 65.6645 44.0608 65.0896 38.6045C64.2357 30.4643 60.3024 22.722 54.7056 16.8786Z" fill="#BCD0E3"/>
</g>
<path d="M8.55983 44.131H4.49346C4.46895 44.131 4.44544 44.1213 4.42811 44.104C4.41078 44.0866 4.40104 44.0631 4.40104 44.0386V37.8097H3.19407C3.1767 37.8099 3.15963 37.8052 3.14488 37.796C3.13013 37.7869 3.11834 37.7736 3.11089 37.7579C3.10192 37.7432 3.09717 37.7262 3.09717 37.709C3.09717 37.6917 3.10192 37.6747 3.11089 37.66L6.43792 33.4605C6.44677 33.45 6.45781 33.4416 6.47026 33.4358C6.48271 33.43 6.49628 33.427 6.51001 33.427C6.52374 33.427 6.53731 33.43 6.54976 33.4358C6.56221 33.4416 6.57324 33.45 6.58209 33.4605L9.90912 37.66C9.91986 37.6736 9.92657 37.6899 9.92847 37.7071C9.93037 37.7243 9.9274 37.7418 9.91988 37.7574C9.91236 37.773 9.90061 37.7862 9.88596 37.7954C9.87132 37.8047 9.85436 37.8096 9.83704 37.8097H8.62452V44.0386C8.62545 44.059 8.61961 44.0791 8.60791 44.0959C8.59621 44.1126 8.5793 44.1249 8.55983 44.131ZM4.58957 43.9462H8.47111V37.7173C8.47111 37.6928 8.48084 37.6693 8.49818 37.6519C8.51551 37.6346 8.53901 37.6249 8.56352 37.6249H9.67253L6.53034 33.6675L3.38815 37.6249H4.49716C4.52167 37.6249 4.54517 37.6346 4.5625 37.6519C4.57984 37.6693 4.58957 37.6928 4.58957 37.7173V43.9462Z" fill="#BCD0E3"/>
<path d="M51.0424 44.131H46.976C46.9515 44.131 46.928 44.1213 46.9107 44.104C46.8933 44.0866 46.8836 44.0631 46.8836 44.0386V37.8097H45.6711C45.6538 37.8096 45.6368 37.8047 45.6222 37.7954C45.6075 37.7862 45.5958 37.773 45.5883 37.7574C45.5807 37.7418 45.5778 37.7243 45.5797 37.7071C45.5816 37.6899 45.5883 37.6736 45.599 37.66L48.9353 33.4605C48.9441 33.45 48.9552 33.4416 48.9676 33.4358C48.9801 33.43 48.9936 33.427 49.0074 33.427C49.0211 33.427 49.0347 33.43 49.0471 33.4358C49.0596 33.4416 49.0706 33.45 49.0794 33.4605L52.4157 37.66C52.4265 37.6736 52.4332 37.6899 52.4351 37.7071C52.437 37.7243 52.434 37.7418 52.4265 37.7574C52.419 37.773 52.4072 37.7862 52.3926 37.7954C52.3779 37.8047 52.361 37.8096 52.3436 37.8097H51.1311V44.0386C51.1311 44.0625 51.1219 44.0855 51.1054 44.1027C51.0888 44.1199 51.0663 44.1301 51.0424 44.131ZM47.0721 43.9462H50.9537V37.7173C50.9537 37.6928 50.9634 37.6693 50.9807 37.6519C50.9981 37.6346 51.0216 37.6249 51.0461 37.6249H52.1551L49.0129 33.6675L45.8707 37.6249H46.9797C47.0042 37.6249 47.0277 37.6346 47.0451 37.6519C47.0624 37.6693 47.0721 37.6928 47.0721 37.7173V43.9462Z" fill="#BCD0E3"/>
<path d="M59.678 52.9939H55.6116C55.5871 52.9939 55.5636 52.9842 55.5462 52.9669C55.5289 52.9495 55.5192 52.926 55.5192 52.9015V46.6726H54.3122C54.2949 46.6725 54.2779 46.6676 54.2633 46.6583C54.2486 46.6491 54.2369 46.6359 54.2294 46.6203C54.2218 46.6047 54.2189 46.5872 54.2208 46.57C54.2227 46.5528 54.2294 46.5365 54.2401 46.5229L57.5672 42.3253C57.576 42.3148 57.587 42.3063 57.5995 42.3005C57.6119 42.2948 57.6255 42.2917 57.6392 42.2917C57.653 42.2917 57.6665 42.2948 57.679 42.3005C57.6914 42.3063 57.7025 42.3148 57.7113 42.3253L61.0384 46.5229C61.0491 46.5365 61.0558 46.5528 61.0577 46.57C61.0596 46.5872 61.0566 46.6047 61.0491 46.6203C61.0416 46.6359 61.0298 46.6491 61.0152 46.6583C61.0005 46.6676 60.9836 46.6725 60.9663 46.6726H59.7537V52.9015C59.7541 52.9234 59.7467 52.9447 59.7328 52.9616C59.7189 52.9786 59.6995 52.99 59.678 52.9939ZM55.7096 52.8091H59.5911V46.5802C59.5911 46.5557 59.6008 46.5322 59.6182 46.5148C59.6355 46.4975 59.659 46.4878 59.6835 46.4878H60.7925L57.6503 42.5304L54.5081 46.4878H55.6171C55.6415 46.4882 55.6647 46.4981 55.682 46.5153C55.6992 46.5326 55.7091 46.5558 55.7096 46.5802V52.8091Z" fill="#BCD0E3"/>
<path d="M55.458 30.3184H51.3916C51.3671 30.3184 51.3436 30.3086 51.3263 30.2913C51.3089 30.274 51.2992 30.2505 51.2992 30.226V23.997H50.0867C50.0691 23.9971 50.0519 23.9921 50.0371 23.9826C50.0224 23.9731 50.0107 23.9595 50.0035 23.9434C49.9961 23.9277 49.9933 23.9102 49.9952 23.8929C49.9972 23.8756 50.0039 23.8592 50.0146 23.8455L53.3416 19.6479C53.3507 19.6373 53.3618 19.6289 53.3745 19.6231C53.3871 19.6173 53.4008 19.6143 53.4146 19.6143C53.4285 19.6143 53.4422 19.6173 53.4548 19.6231C53.4674 19.6289 53.4786 19.6373 53.4876 19.6479L56.8147 23.8455C56.8252 23.8592 56.8318 23.8757 56.8336 23.8929C56.8354 23.9102 56.8324 23.9276 56.825 23.9433C56.8175 23.959 56.8059 23.9723 56.7914 23.9818C56.7768 23.9912 56.7599 23.9965 56.7426 23.997H55.5301V30.226C55.5306 30.2473 55.5237 30.2682 55.5106 30.2851C55.4974 30.3019 55.4788 30.3137 55.458 30.3184ZM51.4896 30.1335H55.3711V23.9046C55.3711 23.8801 55.3809 23.8566 55.3982 23.8393C55.4155 23.8219 55.439 23.8122 55.4635 23.8122H56.5725L53.4304 19.853L50.2882 23.8122H51.3972C51.4217 23.8122 51.4452 23.8219 51.4625 23.8393C51.4798 23.8566 51.4896 23.8801 51.4896 23.9046V30.1335Z" fill="#BCD0E3"/>
<path d="M17.0417 31.7841H12.9753C12.9508 31.7841 12.9273 31.7744 12.91 31.7571C12.8926 31.7397 12.8829 31.7162 12.8829 31.6917V25.4628H11.6722C11.6547 25.463 11.6375 25.4583 11.6226 25.4492C11.6077 25.4401 11.5957 25.427 11.5879 25.4113C11.5802 25.3956 11.577 25.3781 11.5789 25.3607C11.5807 25.3433 11.5874 25.3268 11.5983 25.3131L14.9346 21.1136C14.9434 21.1031 14.9544 21.0947 14.9669 21.0889C14.9793 21.0831 14.9929 21.0801 15.0066 21.0801C15.0204 21.0801 15.0339 21.0831 15.0464 21.0889C15.0588 21.0947 15.0699 21.1031 15.0787 21.1136L18.415 25.3131C18.4257 25.3266 18.4324 25.343 18.4343 25.3602C18.4362 25.3774 18.4333 25.3948 18.4258 25.4104C18.4182 25.4261 18.4065 25.4392 18.3918 25.4485C18.3772 25.4577 18.3602 25.4627 18.3429 25.4628H17.1304V31.6917C17.1304 31.7156 17.1212 31.7386 17.1046 31.7558C17.0881 31.773 17.0655 31.7832 17.0417 31.7841ZM13.0714 31.5993H16.953V25.3703C16.953 25.3458 16.9627 25.3223 16.98 25.305C16.9974 25.2877 17.0209 25.2779 17.0454 25.2779H18.1544L15.0122 21.3206L11.87 25.2779H12.979C13.0035 25.2779 13.027 25.2877 13.0444 25.305C13.0617 25.3223 13.0714 25.3458 13.0714 25.3703V31.5993Z" fill="#BCD0E3"/>
<path d="M16.672 54.4726H12.6057C12.5812 54.4726 12.5577 54.4628 12.5403 54.4455C12.523 54.4282 12.5133 54.4047 12.5133 54.3802V48.1512H11.3007C11.2834 48.1511 11.2665 48.1462 11.2518 48.1369C11.2372 48.1277 11.2254 48.1145 11.2179 48.0989C11.2104 48.0833 11.2074 48.0659 11.2093 48.0487C11.2112 48.0314 11.2179 48.0151 11.2286 48.0015L14.5649 43.8039C14.5738 43.7934 14.5848 43.785 14.5973 43.7792C14.6097 43.7734 14.6233 43.7704 14.637 43.7704C14.6507 43.7704 14.6643 43.7734 14.6768 43.7792C14.6892 43.785 14.7002 43.7934 14.7091 43.8039L18.0454 48.0015C18.0562 48.0152 18.0629 48.0317 18.0648 48.0491C18.0666 48.0665 18.0635 48.0841 18.0557 48.0997C18.048 48.1154 18.036 48.1286 18.021 48.1377C18.0061 48.1468 17.9889 48.1515 17.9714 48.1512H16.7608V54.3802C16.7608 54.404 16.7515 54.427 16.735 54.4442C16.7185 54.4615 16.6959 54.4716 16.672 54.4726ZM12.7018 54.2877H16.5833V48.0588C16.5833 48.0343 16.5931 48.0108 16.6104 47.9935C16.6277 47.9761 16.6512 47.9664 16.6757 47.9664H17.7847L14.6425 44.0091L11.5004 47.9664H12.6094C12.6339 47.9664 12.6574 47.9761 12.6747 47.9935C12.692 48.0108 12.7018 48.0343 12.7018 48.0588V54.2877Z" fill="#BCD0E3"/>
<path d="M45.324 13.0194C45.5542 11.7935 45.4173 10.5269 44.9305 9.37842C44.4438 8.22998 43.6287 7.25081 42.5877 6.56372C41.5466 5.87663 40.3259 5.5122 39.0785 5.51613C37.8312 5.52006 36.6127 5.89218 35.576 6.58582C34.8231 4.75549 33.4582 3.24321 31.7145 2.30711C29.9707 1.371 27.9561 1.0691 26.0145 1.45293C24.0729 1.83676 22.3247 2.88252 21.0683 4.41173C19.8119 5.94094 19.1252 7.85879 19.1253 9.83794C19.1253 9.94394 19.1253 10.0482 19.1253 10.1526C17.8978 10.5024 16.828 11.2636 16.0951 12.3085C15.3622 13.3535 15.0109 14.6186 15.1 15.8919C15.1892 17.1651 15.7133 18.3689 16.5847 19.3016C17.456 20.2342 18.6215 20.8389 19.8857 21.0143V21.0732H45.0515C46.0739 21.0377 47.0447 20.6155 47.7679 19.8918C48.491 19.1681 48.9124 18.1968 48.947 17.1744C48.9816 16.1519 48.6268 15.1544 47.9543 14.3835C47.2818 13.6125 46.3417 13.1256 45.324 13.0211V13.0194Z" fill="#2063A0" stroke="#2063A0" stroke-linejoin="round"/>
<path d="M45.324 12.2623C45.5542 11.0364 45.4173 9.76979 44.9305 8.62134C44.4438 7.4729 43.6287 6.49373 42.5877 5.80664C41.5466 5.11955 40.3259 4.75512 39.0785 4.75905C37.8312 4.76298 36.6127 5.1351 35.576 5.82874C34.8231 3.99854 33.4584 2.48635 31.7148 1.55023C29.9712 0.614105 27.9568 0.312077 26.0153 0.695686C24.0739 1.07929 22.3257 2.12476 21.0691 3.65367C19.8126 5.18258 19.1256 7.10017 19.1253 9.07918C19.1253 9.18517 19.1253 9.28948 19.1253 9.3938C17.8978 9.74361 16.828 10.5048 16.0951 11.5498C15.3622 12.5947 15.0109 13.8599 15.1 15.1331C15.1892 16.4063 15.7133 17.6102 16.5847 18.5428C17.456 19.4755 18.6215 20.0802 19.8857 20.2555V20.3144H45.0515C46.0739 20.279 47.0447 19.8567 47.7679 19.133C48.491 18.4093 48.9124 17.4381 48.947 16.4156C48.9816 15.3932 48.6268 14.3957 47.9543 13.6247C47.2818 12.8538 46.3417 12.3668 45.324 12.2623Z" fill="#90B1D0" stroke="#2063A0" stroke-linejoin="round"/>
<path d="M36.4744 14.5739L32.0429 8.9967L27.613 14.5739H29.3459V22.9709H34.7415V14.5739H36.4744Z" fill="white" stroke="#2063A0" stroke-linejoin="round"/>
<rect x="22.6509" y="22.7837" width="22.1393" height="29.3423" rx="2" fill="#417AAE"/>
<path d="M43.0355 23.1963C41.5481 23.1963 35.1027 23.0903 31.6843 23.1963C34.4504 23.3023 42.5282 23.5674 43.2704 23.5674C43.7401 23.5674 44.0793 23.8854 44.0793 24.283C44.0793 24.6806 44.2098 43.4199 44.3925 47.7403V25.2107C44.3925 24.1452 44.7578 23.1963 43.0355 23.1963Z" fill="#2063A0"/>
<path opacity="0.8" fill-rule="evenodd" clip-rule="evenodd" d="M20.6421 24.3537C20.6557 24.4517 20.5872 24.5421 20.4892 24.5556L20.1344 24.6046C20.0364 24.6181 19.946 24.5497 19.9324 24.4517C19.9189 24.3537 19.9874 24.2633 20.0854 24.2498L20.4402 24.2008C20.5382 24.1873 20.6286 24.2557 20.6421 24.3537ZM20.8804 23.6715C20.8094 23.7403 20.696 23.7386 20.6271 23.6676L20.3777 23.4105C20.3089 23.3395 20.3106 23.2262 20.3816 23.1573C20.4526 23.0884 20.566 23.0901 20.6349 23.1611L20.8843 23.4182C20.9531 23.4892 20.9514 23.6026 20.8804 23.6715ZM21.4592 23.2742C21.4717 23.3723 21.5614 23.4417 21.6595 23.4292C21.7577 23.4167 21.8271 23.327 21.8145 23.2289L21.7692 22.8736C21.7567 22.7755 21.667 22.7061 21.5689 22.7186C21.4708 22.7311 21.4014 22.8208 21.4139 22.9189L21.4592 23.2742Z" fill="white"/>
<path d="M39.2097 24.0889H21.2412V53.0657H43.3805L43.3805 28.579L39.2097 24.0889Z" fill="white"/>
<path d="M23.1389 27.4105L28.4923 27.4105" stroke="#101840" stroke-opacity="0.38" stroke-width="0.5" stroke-linecap="round"/>
<path d="M23.1389 28.7225H26.3405" stroke="#101840" stroke-opacity="0.38" stroke-width="0.5" stroke-linecap="round"/>
<path d="M23.1389 32.7633H30.2243" stroke="#101840" stroke-opacity="0.38" stroke-width="0.5" stroke-linecap="round"/>
<path d="M31.3789 32.7109H36.8898" stroke="#101840" stroke-opacity="0.38" stroke-width="0.5" stroke-linecap="round"/>
<path d="M38.0442 32.7109H41.4557" stroke="#101840" stroke-opacity="0.38" stroke-width="0.5" stroke-linecap="round"/>
<path d="M26.1306 30.8743H38.4645" stroke="#101840" stroke-opacity="0.38" stroke-width="0.5" stroke-linecap="round"/>
<path d="M41.2541 49.2042L23.5006 49.351L23.4917 48.4219L41.2456 48.2751L41.2541 49.2042Z" fill="#E4ECF4"/>
<g style="mix-blend-mode:multiply">
<path d="M23.4898 49.2394L23.5127 49.2949L41.2526 48.9096L41.2297 48.854L23.4898 49.2394Z" fill="#101840" fill-opacity="0.18"/>
</g>
<path d="M23.4899 50.8563L23.5325 51.2428L41.254 50.6698L41.2115 50.2833L23.4899 50.8563Z" fill="#E4ECF4"/>
<g style="mix-blend-mode:multiply">
<path d="M23.4884 51.1882L23.511 51.2383L41.2515 50.8727L41.2289 50.8226L23.4884 51.1882Z" fill="#101840" fill-opacity="0.18"/>
</g>
<path d="M23.5916 34.7728L23.8396 47.1987L41.174 46.8388L40.926 34.413L23.5916 34.7728Z" stroke="#101840" stroke-opacity="0.38" stroke-width="0.3" stroke-linecap="round" stroke-linejoin="round"/>
<path d="M30.0038 35.1803L30.0777 47.209" stroke="#101840" stroke-opacity="0.38" stroke-width="0.3" stroke-linecap="round" stroke-linejoin="round"/>
<path d="M23.5982 35.032L23.6621 35.8812L41.1801 35.2033L41.1162 34.3541L23.5982 35.032Z" fill="#101840" fill-opacity="0.38" stroke="#101840" stroke-opacity="0.38" stroke-width="0.3" stroke-linecap="round" stroke-linejoin="round"/>
<g style="mix-blend-mode:multiply">
<mask id="path-29-inside-1_4139_1601" fill="white">
<path d="M23.5956 35.662L23.6362 35.881L41.1765 35.308L41.1359 35.0891L23.5956 35.662Z"/>
</mask>
<path d="M23.5956 35.662L23.6362 35.881L41.1765 35.308L41.1359 35.0891L23.5956 35.662Z" fill="#BBC5CA"/>
<path d="M23.6362 35.881L23.3363 35.8908L23.391 36.1857L23.6909 36.1759L23.6362 35.881ZM23.5956 35.662L23.5409 35.367L23.241 35.3768L23.2957 35.6718L23.5956 35.662ZM41.1359 35.0891L41.4358 35.0793L41.3811 34.7843L41.0812 34.7941L41.1359 35.0891ZM41.1765 35.308L41.2312 35.603L41.5312 35.5932L41.4764 35.2982L41.1765 35.308ZM23.9361 35.8712L23.8955 35.6522L23.2957 35.6718L23.3363 35.8908L23.9361 35.8712ZM23.6503 35.957L41.1906 35.384L41.0812 34.7941L23.5409 35.367L23.6503 35.957ZM40.836 35.0988L40.8766 35.3178L41.4764 35.2982L41.4358 35.0793L40.836 35.0988ZM41.1218 35.0131L23.5815 35.586L23.6909 36.1759L41.2312 35.603L41.1218 35.0131Z" fill="#101840" fill-opacity="0.38" mask="url(#path-29-inside-1_4139_1601)"/>
</g>
<path d="M23.6436 38.0496L41.1343 37.8895" stroke="#101840" stroke-opacity="0.38" stroke-width="0.3" stroke-linecap="round" stroke-linejoin="round"/>
<path d="M23.6411 40.3228L41.1317 40.1622" stroke="#101840" stroke-opacity="0.38" stroke-width="0.3" stroke-linecap="round" stroke-linejoin="round"/>
<path d="M23.6382 42.5956L41.1294 42.4354" stroke="#101840" stroke-opacity="0.38" stroke-width="0.3" stroke-linecap="round" stroke-linejoin="round"/>
<path d="M23.6362 44.8688L41.1264 44.7083" stroke="#101840" stroke-opacity="0.38" stroke-width="0.3" stroke-linecap="round" stroke-linejoin="round"/>
<path d="M43.3805 53.0657H21.2412V52.648H42.2579C42.6495 52.648 42.7801 52.3608 42.7801 51.9693V28.579H43.3805V53.0657Z" fill="#101840" fill-opacity="0.18"/>
<path d="M43.3806 28.579L39.2034 24.0889L39.3861 28.579H43.3806Z" fill="#1E62A1" fill-opacity="0.12"/>
<path d="M26.7042 22.8888C27.0168 23.3389 27.6982 24.329 27.9233 24.6891C28.2046 25.1391 27.5294 25.5142 27.2294 25.0829C26.9188 24.6364 25.9916 23.3201 25.504 22.6075C25.0051 21.8785 26.0929 21.1073 26.6105 21.7824C26.9556 22.2325 27.1356 22.5325 27.2294 22.6638" stroke="#2063A0" stroke-width="0.2" stroke-linecap="round"/>
</g>
<defs>
<clipPath id="clip0_4139_1601">
<rect width="65.301" height="57" fill="white" transform="translate(0.349609)"/>
</clipPath>
</defs>
</svg>
