<svg width="24" height="16" viewBox="0 0 24 16" fill="none" xmlns="http://www.w3.org/2000/svg">
<path d="M6.79883 11.1094V12H1.21484V11.2207L4.00977 8.10938C4.35352 7.72656 4.61914 7.40234 4.80664 7.13672C4.99805 6.86719 5.13086 6.62695 5.20508 6.41602C5.2832 6.20117 5.32227 5.98242 5.32227 5.75977C5.32227 5.47852 5.26367 5.22461 5.14648 4.99805C5.0332 4.76758 4.86523 4.58398 4.64258 4.44727C4.41992 4.31055 4.15039 4.24219 3.83398 4.24219C3.45508 4.24219 3.13867 4.31641 2.88477 4.46484C2.63477 4.60938 2.44727 4.8125 2.32227 5.07422C2.19727 5.33594 2.13477 5.63672 2.13477 5.97656H1.05078C1.05078 5.49609 1.15625 5.05664 1.36719 4.6582C1.57812 4.25977 1.89062 3.94336 2.30469 3.70898C2.71875 3.4707 3.22852 3.35156 3.83398 3.35156C4.37305 3.35156 4.83398 3.44727 5.2168 3.63867C5.59961 3.82617 5.89258 4.0918 6.0957 4.43555C6.30273 4.77539 6.40625 5.17383 6.40625 5.63086C6.40625 5.88086 6.36328 6.13477 6.27734 6.39258C6.19531 6.64648 6.08008 6.90039 5.93164 7.1543C5.78711 7.4082 5.61719 7.6582 5.42188 7.9043C5.23047 8.15039 5.02539 8.39258 4.80664 8.63086L2.52148 11.1094H6.79883Z" fill="#2063A0"/>
<line opacity="0.4" x1="0.5" y1="14.5" x2="7.5" y2="14.5" stroke="#2063A0"/>
<path d="M16.8334 1.33325H11.5001C10.7667 1.33325 10.1667 1.93325 10.1667 2.66659V13.3333C10.1667 14.0666 10.7667 14.6666 11.5001 14.6666H19.5001C20.2334 14.6666 20.8334 14.0666 20.8334 13.3333V5.33325L16.8334 1.33325ZM19.5001 13.3333H11.5001V2.66659H16.8334V5.33325H19.5001V13.3333ZM15.5001 11.3333C14.7667 11.3333 14.1667 10.7333 14.1667 9.99992V6.33325C14.1667 6.14659 14.3134 5.99992 14.5001 5.99992C14.6867 5.99992 14.8334 6.14659 14.8334 6.33325V9.99992H16.1667V6.33325C16.1667 5.41325 15.4201 4.66659 14.5001 4.66659C13.5801 4.66659 12.8334 5.41325 12.8334 6.33325V9.99992C12.8334 11.4733 14.0267 12.6666 15.5001 12.6666C16.9734 12.6666 18.1667 11.4733 18.1667 9.99992V7.33325H16.8334V9.99992C16.8334 10.7333 16.2334 11.3333 15.5001 11.3333Z" fill="#6392BD"/>
</svg>
