<svg width="48" height="42" viewBox="0 0 48 42" fill="none" xmlns="http://www.w3.org/2000/svg">
<path d="M14 36.7726C14 36.8951 14.2113 37.0164 14.6217 37.1295C15.0321 37.2427 15.6337 37.3455 16.3921 37.4321C17.1505 37.5188 18.0509 37.5875 19.0418 37.6343C20.0327 37.6812 21.0947 37.7053 22.1673 37.7053C23.2398 37.7053 24.3018 37.6812 25.2927 37.6343C26.2836 37.5875 27.184 37.5188 27.9424 37.4321C28.7008 37.3455 29.3024 37.2427 29.7128 37.1295C30.1232 37.0164 30.3345 36.8951 30.3345 36.7726C30.3345 36.6501 30.1232 36.5288 29.7128 36.4156C29.3024 36.3025 28.7008 36.1997 27.9424 36.113C27.184 36.0264 26.2836 35.9577 25.2927 35.9108C24.3018 35.864 23.2398 35.8398 22.1673 35.8398C21.0947 35.8398 20.0327 35.864 19.0418 35.9108C18.0509 35.9577 17.1505 36.0264 16.3921 36.113C15.6337 36.1997 15.0321 36.3025 14.6217 36.4156C14.2113 36.5288 14 36.6501 14 36.7726Z" fill="#BCD0E3"/>
<path d="M15.697 33.0617C15.7153 33.141 15.749 33.2158 15.7962 33.282C15.8434 33.3482 15.9032 33.4045 15.9722 33.4476C16.0411 33.4907 16.1179 33.5197 16.1981 33.5331C16.2783 33.5465 16.3604 33.544 16.4396 33.5256L33.9485 29.4867C34.0278 29.4685 34.1026 29.4349 34.1689 29.3877C34.2351 29.3406 34.2914 29.2808 34.3345 29.2119C34.3777 29.143 34.4068 29.0663 34.4203 28.9861C34.4337 28.9059 34.4313 28.8239 34.413 28.7446L29.8981 9.14608L23.5855 5.2041L10.6047 8.19826C10.5255 8.21646 10.4506 8.25009 10.3844 8.29724C10.3181 8.34439 10.2618 8.40413 10.2187 8.47305C10.1756 8.54196 10.1464 8.6187 10.133 8.69888C10.1195 8.77906 10.122 8.86111 10.1402 8.94034L15.697 33.0617Z" fill="white" stroke="#114D84" stroke-width="0.5" stroke-linecap="round" stroke-linejoin="round"/>
<path d="M29.8982 9.14608L25.3755 10.1895C25.2139 10.2262 25.0445 10.1975 24.9041 10.1096C24.7637 10.0217 24.6638 9.88181 24.6262 9.7205L23.5857 5.2041L29.8982 9.14608Z" fill="#C5DEFD" stroke="#114D84" stroke-width="0.5" stroke-linecap="round" stroke-linejoin="round"/>
<path d="M27.4084 23.5994L27.4085 23.5998C27.625 24.5059 27.4732 25.4632 26.9869 26.2613C26.5006 27.0595 25.7194 27.6332 24.8149 27.8563C23.9104 28.0793 22.9568 27.9333 22.1638 27.4501C21.3709 26.967 20.8039 26.1864 20.5874 25.2803L20.5873 25.28L18.0474 14.4932C18.0474 14.4931 18.0474 14.493 18.0473 14.4929C17.9084 13.9112 18.0058 13.2966 18.3179 12.7842C18.6301 12.2718 19.1317 11.9033 19.7125 11.7601C20.2933 11.6168 20.9058 11.7105 21.4151 12.0208C21.9245 12.3311 22.2886 12.8324 22.4277 13.4143L22.4278 13.4146L24.7166 23.1535C24.7166 23.1536 24.7167 23.1537 24.7167 23.1538C24.7471 23.2812 24.7522 23.4134 24.7317 23.543C24.7112 23.6727 24.6654 23.7972 24.5971 23.9095C24.5287 24.0217 24.439 24.1195 24.3332 24.1972C24.2274 24.275 24.1074 24.3312 23.9802 24.3626C23.8529 24.394 23.7208 24.4 23.5915 24.3802C23.4621 24.3604 23.3381 24.3152 23.2264 24.2472C23.1147 24.1792 23.0176 24.0897 22.9407 23.9838C22.8638 23.878 22.8085 23.7579 22.778 23.6304L22.778 23.6302L21.18 16.8897L21.18 16.8898L21.1792 16.8857C21.1633 16.8036 21.131 16.7258 21.0843 16.6569C21.0375 16.588 20.9774 16.5294 20.9074 16.4847C20.8374 16.4399 20.7589 16.4099 20.6768 16.3964C20.5947 16.3829 20.5106 16.3863 20.4294 16.4063C20.3483 16.4263 20.2719 16.4626 20.2049 16.513C20.1378 16.5634 20.0815 16.6268 20.0394 16.6994C19.9973 16.7721 19.9702 16.8525 19.9598 16.9357C19.9493 17.0189 19.9558 17.1031 19.9787 17.1834L19.9788 17.1834L19.9799 17.1878L21.5772 23.929C21.5772 23.929 21.5772 23.9291 21.5772 23.9291C21.7151 24.5056 22.0759 25.0019 22.5801 25.309C23.0844 25.616 23.6909 25.7089 24.2665 25.5668C24.842 25.4247 25.3395 25.0594 25.6491 24.5509C25.9587 24.0425 26.0551 23.4329 25.9172 22.8563L25.9171 22.8559L23.6284 13.1168C23.5232 12.6693 23.3309 12.2476 23.0625 11.876C22.7941 11.5043 22.4548 11.19 22.0642 10.951C21.6736 10.712 21.2393 10.5531 20.7862 10.4833C20.3332 10.4135 19.8702 10.4342 19.4238 10.5443C18.9775 10.6544 18.5566 10.8517 18.1853 11.125C17.814 11.3982 17.4997 11.742 17.2603 12.1366C17.0209 12.5312 16.8613 12.9688 16.7905 13.4243C16.7197 13.8798 16.7392 14.3443 16.8478 14.791L16.8479 14.7917L19.3869 25.5779C19.3869 25.578 19.3869 25.578 19.387 25.5781C19.6798 26.8031 20.4463 27.8579 21.5178 28.5107C22.5893 29.1635 23.8783 29.3609 25.1012 29.0593C26.3242 28.7576 27.3809 27.9816 28.0388 26.9018C28.6966 25.822 28.9016 24.5271 28.6089 23.3021C28.6089 23.302 28.6089 23.3019 28.6088 23.3018L27.2543 17.7417L27.2541 17.7412C27.2354 17.6622 27.2012 17.5879 27.1537 17.5224C27.1061 17.457 27.0461 17.4018 26.9771 17.3598C26.8732 17.2968 26.7528 17.2662 26.631 17.2718C26.5091 17.2774 26.3913 17.3191 26.2924 17.3917C26.1935 17.4644 26.1181 17.5646 26.0756 17.6799C26.0331 17.7951 26.0255 17.92 26.0537 18.0388C26.0537 18.0389 26.0537 18.039 26.0537 18.0391L27.4084 23.5994Z" fill="#C5DEFD" stroke="#114D84" stroke-width="0.2"/>
<path d="M34.8452 22.8399C34.2776 22.8299 33.7048 22.9001 33.1398 23.049L31.8832 20.7735L29.4264 22.2026L30.6332 24.3815C30.1517 24.797 29.7393 25.2791 29.4054 25.8041L26.6337 25.0375L25.8706 27.8077L28.4284 28.5185C28.3263 29.3216 28.3676 30.1392 28.5675 30.9406L26.3226 32.2454L27.7033 34.7365L29.8522 33.4875C30.3353 34.0692 30.9054 34.5417 31.5327 34.9071L30.8872 37.2584L33.599 38.0118L34.2224 35.7411C35.0554 35.8012 35.9094 35.6905 36.7325 35.3976L37.9353 37.5757L40.392 36.1466L39.1314 33.8702C39.5462 33.4529 39.8973 32.9829 40.1841 32.4816L42.8048 33.2106L43.568 30.4404L41.0253 29.7372C41.0916 28.8877 40.9904 28.0184 40.7102 27.1821L42.8582 25.9372L41.4774 23.446L39.2333 24.7467C38.746 24.2411 38.1881 23.8269 37.5811 23.5216L38.2975 20.9251L35.5858 20.1717L34.8513 22.8498L34.8452 22.8399ZM36.9546 27.9861C37.6527 29.2441 37.2082 30.857 35.9676 31.5795C34.727 32.3021 33.1481 31.8632 32.45 30.6052C31.7519 29.3473 32.1964 27.7344 33.437 27.0118C34.6776 26.2893 36.2565 26.7281 36.9546 27.9861Z" fill="#E5D050"/>
<path fill-rule="evenodd" clip-rule="evenodd" d="M34.8513 22.8498L35.5857 20.1716L38.2974 20.925L37.581 23.5216C38.1881 23.8269 38.7459 24.2411 39.2333 24.7467L41.4774 23.446L42.8581 25.9372L40.7102 27.1821C40.9904 28.0184 41.0915 28.8877 41.0253 29.7372L43.568 30.4404L42.8048 33.2106L40.184 32.4816C39.8973 32.9829 39.5462 33.4528 39.1313 33.8702L40.392 36.1466L37.9352 37.5757L36.7324 35.3976C35.9093 35.6905 35.0553 35.8012 34.2223 35.7411L33.5989 38.0118L30.8873 37.2584L31.5326 34.907C30.9053 34.5417 30.3352 34.0692 29.8521 33.4875L27.7032 34.7365L26.3224 32.2453L28.5674 30.9406C28.3675 30.1392 28.3261 29.3216 28.4282 28.5185L25.8706 27.8077L26.6336 25.0375L29.4053 25.8041C29.7392 25.279 30.1516 24.797 30.6331 24.3815L29.4263 22.2025L31.8831 20.7735L33.1397 23.049C33.6942 22.9029 34.2561 22.8326 34.8133 22.8394C34.8239 22.8395 34.8345 22.8397 34.8451 22.8399L34.8513 22.8498ZM34.4663 23.5347L35.2697 23.5347L36.0672 21.0204L37.4505 21.4047L36.7667 23.8831L37.2715 24.137C37.8064 24.406 38.3018 24.7729 38.7374 25.2248L39.1119 25.6133L41.2153 24.3941L41.928 25.6801L39.8784 26.868L40.057 27.401C40.3074 28.148 40.3977 28.9246 40.3385 29.6836L40.2943 30.2498L42.7211 30.9209L42.3241 32.3619L39.8522 31.6743L39.5861 32.1395C39.3274 32.5918 39.0124 33.0128 38.6428 33.3846L38.2781 33.7514L39.4626 35.8903L38.1977 36.6261L37.0526 34.5525L36.5015 34.7486C35.7689 35.0093 35.0105 35.1073 34.2718 35.0541L33.7078 35.0134L33.1176 37.1631L31.7332 36.7785L32.3371 34.5785L31.8793 34.3118C31.3188 33.9854 30.8115 33.5645 30.382 33.0474L30.0097 32.5992L27.9649 33.7877L27.2521 32.5017L29.3611 31.276L29.2358 30.7738C29.0573 30.0584 29.0199 29.3268 29.1116 28.6054L29.1867 28.0143L26.7171 27.328L27.1146 25.8852L29.713 26.604L29.9866 26.1738C30.2852 25.7041 30.6538 25.2735 31.0831 24.903L31.5069 24.5373L30.3557 22.4588L31.6206 21.7231L32.7962 23.8519L33.3153 23.7151C33.6982 23.6142 34.0835 23.5541 34.4663 23.5347ZM37.5569 27.6519C38.4368 29.2376 37.8789 31.2636 36.3142 32.1748C34.7376 33.093 32.7317 32.5326 31.8476 30.9395C30.9676 29.3538 31.5256 27.3278 33.0902 26.4166C34.6668 25.4984 36.6727 26.0587 37.5569 27.6519ZM35.9675 31.5795C37.2082 30.857 37.6527 29.2441 36.9545 27.9861C36.2564 26.7281 34.6775 26.2893 33.4369 27.0118C32.1963 27.7343 31.7518 29.3472 32.4499 30.6052C33.148 31.8632 34.7269 32.3021 35.9675 31.5795Z" fill="#114D84"/>
</svg>
