<svg width="25" height="25" viewBox="0 0 25 25" fill="none" xmlns="http://www.w3.org/2000/svg">
<g clip-path="url(#clip0_9_12)">
<rect width="25" height="25" rx="10" fill="white"/>
<path d="M23.62 0H1.38C0.6175 0 0 0.6175 0 1.38V23.6213C0 24.3825 0.6175 25 1.38 25H13.355V15.3188H10.095V11.5463H13.3525V8.7625C13.3525 5.53375 15.325 3.775 18.2062 3.775C19.5863 3.775 20.7712 3.8775 21.1175 3.92375V7.29875H19.12C17.5525 7.29875 17.25 8.045 17.25 9.13625V11.5463H20.9862L20.4988 15.3188H17.2487V25H23.6213C24.3812 25 24.9988 24.3825 24.9988 23.62V1.38C25 0.6175 24.3825 0 23.62 0Z" fill="#178FF5"/>
</g>
<defs>
<clipPath id="clip0_9_12">
<rect width="25" height="25" rx="10" fill="white"/>
</clipPath>
</defs>
</svg>
