<svg width="25" height="25" viewBox="0 0 25 25" fill="none" xmlns="http://www.w3.org/2000/svg">
<g clip-path="url(#clip0_9_16)">
<path d="M12.5 2.2525C15.8375 2.2525 16.2337 2.265 17.5525 2.32625C20.94 2.48 22.5213 4.0875 22.6763 7.45C22.7363 8.7675 22.7475 9.1625 22.7475 12.5C22.7475 15.84 22.735 16.235 22.6763 17.5525C22.5213 20.9112 20.9425 22.5213 17.5513 22.6763C16.2338 22.7363 15.8387 22.7487 12.5 22.7487C9.1625 22.7487 8.76625 22.7363 7.45 22.6763C4.05375 22.5213 2.47875 20.9062 2.325 17.5513C2.265 16.2338 2.2525 15.8387 2.2525 12.5C2.2525 9.1625 2.265 8.7675 2.325 7.45C2.48 4.0875 4.05875 2.47875 7.45 2.325C8.7675 2.265 9.1625 2.2525 12.5 2.2525ZM12.5 0C9.105 0 8.68 0.015 7.3475 0.075C2.8075 0.28375 0.285 2.8025 0.075 7.34625C0.0125 8.68 0 9.105 0 12.5C0 15.895 0.015 16.3213 0.075 17.6537C0.28375 22.1938 2.8025 24.7163 7.34625 24.925C8.68 24.985 9.105 25 12.5 25C15.895 25 16.3213 24.985 17.6537 24.925C22.19 24.7163 24.7187 22.1975 24.9237 17.6537C24.9862 16.3213 25 15.895 25 12.5C25 9.105 24.985 8.68 24.925 7.3475C24.7213 2.81125 22.2 0.285 17.655 0.075C16.3212 0.0125 15.895 0 12.5 0ZM12.5 6.08125C10.7976 6.08125 9.16501 6.75751 7.96126 7.96126C6.75751 9.16501 6.08125 10.7976 6.08125 12.5C6.08125 14.2024 6.75751 15.835 7.96126 17.0387C9.16501 18.2425 10.7976 18.9188 12.5 18.9188C14.2024 18.9188 15.835 18.2425 17.0387 17.0387C18.2425 15.835 18.9188 14.2024 18.9188 12.5C18.9188 10.7976 18.2425 9.16501 17.0387 7.96126C15.835 6.75751 14.2024 6.08125 12.5 6.08125ZM12.5 16.6663C11.395 16.6663 10.3353 16.2273 9.55402 15.446C8.77269 14.6647 8.33375 13.605 8.33375 12.5C8.33375 11.395 8.77269 10.3353 9.55402 9.55402C10.3353 8.77269 11.395 8.33375 12.5 8.33375C13.605 8.33375 14.6647 8.77269 15.446 9.55402C16.2273 10.3353 16.6663 11.395 16.6663 12.5C16.6663 13.605 16.2273 14.6647 15.446 15.446C14.6647 16.2273 13.605 16.6663 12.5 16.6663ZM19.1725 4.32875C18.7747 4.32875 18.3931 4.48679 18.1118 4.76809C17.8305 5.04939 17.6725 5.43093 17.6725 5.82875C17.6725 6.22657 17.8305 6.60811 18.1118 6.88941C18.3931 7.17071 18.7747 7.32875 19.1725 7.32875C19.5703 7.32875 19.9519 7.17071 20.2332 6.88941C20.5145 6.60811 20.6725 6.22657 20.6725 5.82875C20.6725 5.43093 20.5145 5.04939 20.2332 4.76809C19.9519 4.48679 19.5703 4.32875 19.1725 4.32875Z" fill="url(#paint0_linear_9_16)"/>
</g>
<defs>
<linearGradient id="paint0_linear_9_16" x1="25" y1="0" x2="0" y2="25" gradientUnits="userSpaceOnUse">
<stop stop-color="#DF4896"/>
<stop offset="0.50913" stop-color="#EE877E"/>
<stop offset="1" stop-color="#FDC366"/>
</linearGradient>
<clipPath id="clip0_9_16">
<rect width="25" height="25" rx="10" fill="white"/>
</clipPath>
</defs>
</svg>
