<svg width="86" height="75" viewBox="0 0 86 75" fill="none" xmlns="http://www.w3.org/2000/svg">
<path d="M85.8205 35.2578C85.0428 42.3618 81.5693 50.6948 74.3234 54.6857C63.3756 60.7184 64.5177 69.4757 42.9701 73.9218C39.6109 74.6159 36.4148 74.9589 33.3946 74.9963C31.7703 75.0174 30.1968 74.9475 28.6776 74.7947C14.88 73.426 5.41873 65.2864 1.7749 55.2368C-3.02009 42.0188 5.68884 33.0242 11.4755 27.5881C17.2603 22.1536 21.1905 5.62582 42.3374 1.10983C45.5625 0.422184 48.8655 0.0239044 52.1794 0.00114561C59.7408 -0.0541258 68.0382 1.8885 73.8538 6.27933C74.2907 6.60933 74.7149 6.95234 75.1301 7.3051C83.2335 14.2303 86.881 25.5755 85.8205 35.2594V35.2578Z" fill="#F5F5F6"/>
<path d="M25.3868 65.6656C25.3868 65.8844 25.764 66.1009 26.4969 66.303C27.2299 66.5051 28.3042 66.6887 29.6584 66.8434C31.0127 66.9981 32.6205 67.1208 34.39 67.2045C36.1594 67.2882 38.0559 67.3312 39.9712 67.3312C41.8864 67.3312 43.7829 67.2882 45.5524 67.2045C47.3218 67.1208 48.9296 66.9981 50.2839 66.8434C51.6382 66.6887 52.7124 66.5051 53.4454 66.303C54.1783 66.1009 54.5555 65.8844 54.5555 65.6656C54.5555 65.4469 54.1783 65.2303 53.4454 65.0282C52.7124 64.8261 51.6382 64.6425 50.2839 64.4879C48.9296 64.3332 47.3218 64.2105 45.5524 64.1268C43.7829 64.0431 41.8864 64 39.9712 64C38.0559 64 36.1594 64.0431 34.39 64.1268C32.6205 64.2105 31.0127 64.3332 29.6584 64.4879C28.3042 64.6425 27.2299 64.8261 26.4969 65.0282C25.764 65.2303 25.3868 65.4469 25.3868 65.6656Z" fill="#BCD0E3"/>
<path d="M15.3868 20.7334H68.3868V58.0001H15.3868V20.7334Z" fill="#C5DEFD"/>
<path fill-rule="evenodd" clip-rule="evenodd" d="M14.3868 21.148C14.3868 20.919 14.6089 20.7334 14.8829 20.7334H67.8907C68.1647 20.7334 68.3868 20.919 68.3868 21.148V57.5855C68.3868 57.8145 68.1647 58.0001 67.8907 58.0001H14.8829C14.6089 58.0001 14.3868 57.8145 14.3868 57.5855V21.148ZM15.379 21.5625V57.1709H67.3946V21.5625H15.379Z" fill="#114D84"/>
<path d="M21.3868 29H61.3868V52H21.3868V29Z" fill="white" fill-opacity="0.5"/>
<path fill-rule="evenodd" clip-rule="evenodd" d="M25.3868 32.5C25.3868 32.2239 25.7422 32 26.1806 32H40.593C41.0314 32 41.3868 32.2239 41.3868 32.5C41.3868 32.7761 41.0314 33 40.593 33H26.1806C25.7422 33 25.3868 32.7761 25.3868 32.5Z" fill="#114D84"/>
<path fill-rule="evenodd" clip-rule="evenodd" d="M25.3868 43.5C25.3868 43.2239 25.7421 43 26.1803 43H49.5932C50.0315 43 50.3868 43.2239 50.3868 43.5C50.3868 43.7761 50.0315 44 49.5932 44H26.1803C25.7421 44 25.3868 43.7761 25.3868 43.5Z" fill="#114D84"/>
<path fill-rule="evenodd" clip-rule="evenodd" d="M25.3868 37.5C25.3868 37.2239 25.7354 37 26.1655 37H45.608C46.0381 37 46.3868 37.2239 46.3868 37.5C46.3868 37.7761 46.0381 38 45.608 38H26.1655C25.7354 38 25.3868 37.7761 25.3868 37.5Z" fill="#114D84"/>
<path fill-rule="evenodd" clip-rule="evenodd" d="M25.3868 48.5C25.3868 48.2239 25.7354 48 26.1655 48H45.608C46.0381 48 46.3868 48.2239 46.3868 48.5C46.3868 48.7761 46.0381 49 45.608 49H26.1655C25.7354 49 25.3868 48.7761 25.3868 48.5Z" fill="#114D84"/>
<path d="M64.9679 15.9556H18.8066C18.3576 15.9554 17.9129 16.0377 17.498 16.1977C17.0831 16.3577 16.7061 16.5923 16.3885 16.8881C16.0709 17.1838 15.819 17.535 15.6471 17.9214C15.4752 18.3079 15.3868 18.7221 15.3868 19.1404V25.5111H68.3868V19.1404C68.3868 18.2958 68.0266 17.4857 67.3854 16.8884C66.7442 16.2911 65.8746 15.9556 64.9679 15.9556Z" fill="white"/>
<path fill-rule="evenodd" clip-rule="evenodd" d="M15.5339 16.169C16.2684 15.4205 17.2645 15 18.3033 15H64.4713C65.5098 15.0003 66.5058 15.4209 67.2401 16.1694C67.9743 16.9178 68.3868 17.9328 68.3868 18.9911V25.9611C68.3868 26.2403 68.1647 26.4667 67.8907 26.4667H14.8829C14.6089 26.4667 14.3868 26.2403 14.3868 25.9611V18.9911C14.3868 17.9326 14.7994 16.9174 15.5339 16.169ZM18.3033 16.0111C17.5277 16.0111 16.7839 16.3251 16.2355 16.8839C15.6871 17.4428 15.379 18.2007 15.379 18.9911V25.4555H67.3946V18.9911C67.3946 18.2009 67.0866 17.4431 66.5384 16.8842C65.9902 16.3254 65.2466 16.0114 64.4712 16.0111C64.4712 16.0111 64.4713 16.0111 64.4712 16.0111H18.3033Z" fill="#114D84"/>
<path d="M54.2803 20.8965C54.2803 21.3333 54.4619 21.7522 54.7852 22.0611C55.1084 22.37 55.5468 22.5435 56.0039 22.5435C56.461 22.5435 56.8995 22.37 57.2227 22.0611C57.5459 21.7522 57.7275 21.3333 57.7275 20.8965C57.7275 20.4597 57.5459 20.0408 57.2227 19.7319C56.8995 19.423 56.461 19.2495 56.0039 19.2495C55.5468 19.2495 55.1084 19.423 54.7852 19.7319C54.4619 20.0408 54.2803 20.4597 54.2803 20.8965Z" fill="#73B04C"/>
<path d="M61.1734 20.8965C61.1734 21.3333 61.355 21.7522 61.6782 22.0611C62.0015 22.37 62.4399 22.5435 62.897 22.5435C63.3541 22.5435 63.7925 22.37 64.1158 22.0611C64.439 21.7522 64.6206 21.3333 64.6206 20.8965C64.6206 20.4597 64.439 20.0408 64.1158 19.7319C63.7925 19.423 63.3541 19.2495 62.897 19.2495C62.4399 19.2495 62.0015 19.423 61.6782 19.7319C61.355 20.0408 61.1734 20.4597 61.1734 20.8965Z" fill="#A86277"/>
<path d="M62.6099 40.7856C61.5964 40.7678 60.5736 40.8931 59.5647 41.159L57.3207 37.0956L52.9336 39.6475L55.0886 43.5384C54.2288 44.2804 53.4924 45.1412 52.8961 46.0789L47.9467 44.7099L46.584 49.6567L51.1514 50.926C50.9691 52.36 51.0429 53.8201 51.3999 55.2511L47.3911 57.581L49.8567 62.0296L53.6939 59.7992C54.5566 60.8378 55.5746 61.6816 56.6948 62.3341L55.5422 66.5329L60.3846 67.8782L61.4978 63.8235C62.9854 63.9308 64.5104 63.7331 65.9801 63.2101L68.128 67.0995L72.5151 64.5476L70.2639 60.4826C71.0047 59.7373 71.6316 58.898 72.1437 58.0029L76.8237 59.3047L78.1864 54.3579L73.6459 53.1022C73.7642 51.5853 73.5837 50.0328 73.0833 48.5396L76.9189 46.3165L74.4532 41.8679L70.446 44.1906C69.5757 43.2878 68.5796 42.5481 67.4956 42.003L68.7748 37.3662L63.9324 36.0209L62.621 40.8033L62.6099 40.7856ZM66.3768 49.9753C67.6234 52.2217 66.8297 55.1019 64.6143 56.3921C62.3989 57.6823 59.5795 56.8987 58.3329 54.6523C57.0862 52.4058 57.88 49.5257 60.0954 48.2355C62.3108 46.9453 65.1302 47.7289 66.3768 49.9753Z" fill="#E5D050"/>
<path fill-rule="evenodd" clip-rule="evenodd" d="M62.6208 40.8033L63.9323 36.0208L68.7747 37.3662L67.4955 42.0029C68.5795 42.5481 69.5756 43.2878 70.4459 44.1906L74.4532 41.8679L76.9189 46.3165L73.0833 48.5395C73.5836 50.0328 73.7642 51.5852 73.6459 53.1022L78.1864 54.3579L76.8237 59.3047L72.1437 58.0029C71.6316 58.898 71.0047 59.7373 70.2639 60.4826L72.515 64.5476L68.1279 67.0995L65.9801 63.2101C64.5103 63.7331 62.9853 63.9308 61.4977 63.8235L60.3845 67.8782L55.5424 66.533L56.6946 62.334C55.5745 61.6816 54.5564 60.8378 53.6937 59.7992L49.8565 62.0295L47.3908 57.581L51.3997 55.2511C51.0426 53.82 50.9689 52.3599 51.1512 50.9259L46.584 49.6567L47.9465 44.7098L52.8959 46.0788C53.4922 45.1412 54.2286 44.2803 55.0884 43.5384L52.9334 39.6474L57.3205 37.0955L59.5646 41.159C60.5547 40.898 61.5581 40.7725 62.5531 40.7847C62.572 40.7849 62.5909 40.7852 62.6098 40.7855L62.6208 40.8033ZM61.9334 42.0263L63.3681 42.0263L64.7922 37.5364L67.2624 38.2227L66.0413 42.6485L66.9428 43.1019C67.8979 43.5822 68.7825 44.2374 69.5603 45.0443L70.2291 45.738L73.9852 43.561L75.258 45.8573L71.598 47.9786L71.9169 48.9304C72.3639 50.2643 72.5252 51.6511 72.4195 53.0065L72.3406 54.0175L76.6741 55.2159L75.9652 57.7891L71.5512 56.5613L71.0759 57.3921C70.614 58.1996 70.0514 58.9514 69.3914 59.6154L68.7403 60.2705L70.8554 64.0899L68.5967 65.4037L66.5519 61.7009L65.5676 62.0512C64.2595 62.5167 62.9051 62.6917 61.5862 62.5966L60.5789 62.5239L59.525 66.3627L57.0529 65.6759L58.1313 61.7473L57.3138 61.2711C56.3129 60.6882 55.407 59.9367 54.64 59.0132L53.9751 58.2128L50.3238 60.3351L49.051 58.0389L52.8169 55.8501L52.5932 54.9533C52.2744 53.6757 52.2077 52.3694 52.3715 51.081L52.5056 50.0256L48.0956 48.8001L48.8054 46.2237L53.4454 47.5071L53.9339 46.7389C54.4673 45.9002 55.1253 45.1313 55.892 44.4697L56.6487 43.8167L54.593 40.1051L56.8518 38.7912L58.9511 42.5927L59.878 42.3485C60.5619 42.1682 61.2499 42.0609 61.9334 42.0263ZM67.4523 49.3784C69.0237 52.21 68.0273 55.8278 65.2333 57.455C62.4179 59.0946 58.8359 58.094 57.2571 55.2491C55.6858 52.4175 56.6821 48.7996 59.4762 47.1725C62.2915 45.5329 65.8735 46.5335 67.4523 49.3784ZM64.6142 56.3921C66.8296 55.1019 67.6234 52.2217 66.3767 49.9753C65.1301 47.7288 62.3107 46.9452 60.0952 48.2354C57.8798 49.5256 57.0861 52.4058 58.3327 54.6522C59.5794 56.8987 62.3988 57.6823 64.6142 56.3921Z" fill="#114D84"/>
</svg>
