<svg width="25" height="25" viewBox="0 0 25 25" fill="none" xmlns="http://www.w3.org/2000/svg">
<g clip-path="url(#clip0_9_14)">
<path d="M25 2.82942C24.0638 3.31762 23.0707 3.63785 22.0537 3.77942C23.1256 3.02618 23.9277 1.8395 24.31 0.441182C23.303 1.14422 22.2013 1.63958 21.0525 1.90589C20.5728 1.30334 19.9929 0.823232 19.3489 0.495372C18.7049 0.167513 18.0105 -0.0010989 17.3088 5.38929e-06C13.9963 5.38929e-06 11.5638 3.6353 12.3112 7.40736C10.2721 7.28767 8.27723 6.6648 6.45602 5.57919C4.63482 4.49357 3.02804 2.96949 1.74 1.10589C1.08468 2.43453 0.884069 4.00691 1.17896 5.50335C1.47385 6.99978 2.24209 8.30791 3.3275 9.16177C2.51327 9.1318 1.71695 8.87313 1.005 8.40736C0.95 11.2 2.6525 13.8162 5.11875 14.3971C4.36339 14.6384 3.57118 14.6736 2.8025 14.5C3.13002 15.699 3.76798 16.7474 4.6271 17.4987C5.48622 18.2499 6.52349 18.6664 7.59375 18.6897C5.44414 20.6742 2.71298 21.5738 0 21.1912C2.34535 22.9638 5.07486 23.9047 7.8625 23.9015C17.385 23.9015 22.765 14.4397 22.4412 5.95295C23.4449 5.09857 24.3113 4.04091 25 2.82942Z" fill="#1DA1F2"/>
</g>
<defs>
<clipPath id="clip0_9_14">
<rect width="25" height="25" rx="10" fill="white"/>
</clipPath>
</defs>
</svg>
