<svg width="25" height="25" viewBox="0 0 25 25" fill="none" xmlns="http://www.w3.org/2000/svg">
<g clip-path="url(#clip0_9_18)">
<path d="M12.5 0C5.5975 0 0 5.5975 0 12.5C0 19.4037 5.5975 25 12.5 25C19.4037 25 25 19.4037 25 12.5C25 5.5975 19.4037 0 12.5 0ZM17.125 17.5962C14.9375 17.7463 10.06 17.7463 7.8725 17.5962C5.5025 17.4338 5.22625 16.2725 5.20875 12.5C5.22625 8.72 5.505 7.56625 7.8725 7.40375C10.06 7.25375 14.9375 7.25375 17.1263 7.40375C19.4975 7.56625 19.7725 8.7275 19.7913 12.5C19.7725 16.28 19.495 17.4338 17.1263 17.5962H17.125ZM10.4175 10.06L15.54 12.4963L10.4175 14.94V10.06Z" fill="#C4032B"/>
</g>
<defs>
<clipPath id="clip0_9_18">
<rect width="25" height="25" rx="10" fill="white"/>
</clipPath>
</defs>
</svg>
