<svg width="40" height="35" viewBox="0 0 40 35" fill="none" xmlns="http://www.w3.org/2000/svg">
<path d="M39.971 22.6154L33.1933 11.2357L26.4736 0H13.4975L6.7777 11.2357L0 22.6154L6.7777 34.1391H33.1933L33.1354 34.1103H33.1933L33.2223 34.1391L40 22.6442V22.6154H39.971ZM19.9855 11.2357L26.4736 22.5866H13.4395L19.9855 11.2357Z" fill="#058C97"/>
<path d="M19.9855 11.2362L13.4395 22.6159H0L19.9855 11.2362Z" fill="#1D7478"/>
<path d="M39.9707 22.6159H39.9418L33.1641 11.2362H33.193L39.9707 22.6159Z" fill="#1D7478"/>
<path d="M33.1642 11.2357L26.4734 0.0288094L26.5024 11.2357L26.4734 22.6154L19.9854 11.2357L26.4734 0L33.1932 11.2357H33.1642Z" fill="#1D7478"/>
<path d="M33.164 34.1105H33.135L13.4391 22.6156H26.4732L33.164 34.1105Z" fill="#1D7478"/>
<path d="M33.1638 34.1105L26.473 22.6156H26.5309L33.1638 34.1105Z" fill="#1D7478"/>
<path d="M26.4736 0L19.9855 11.2357L0 22.6154L6.7777 11.2357L13.4975 0H26.4736Z" fill="#058C97"/>
<path d="M39.9415 22.615L33.1927 34.11H33.1638L26.473 22.615L26.5019 11.2353L26.473 0.0284729L33.1638 11.2353L39.9415 22.615Z" fill="#058C97"/>
<path d="M39.9707 22.6444L33.193 34.1393L33.1641 34.1105H33.193L39.9418 22.6156L39.9707 22.6444Z" fill="#058C97"/>
<path d="M33.1354 34.1105H6.7777L0 22.6156H13.4395L33.1354 34.1105Z" fill="#058C97"/>
<path d="M33.1933 34.1393H6.7777L0 22.6156L6.7777 34.1105H33.1354L33.1933 34.1393Z" fill="#058C97"/>
</svg>
