<svg width="50" height="52" viewBox="0 0 50 52" fill="none" xmlns="http://www.w3.org/2000/svg">
<path d="M50 11.7439V45.6966H0V11.7439L2.92969 8.66694H47.0703L50 11.7439Z" fill="#EFEFF4"/>
<path d="M50 11.7439V45.6966H25V8.66694H47.0703L50 11.7439Z" fill="#DADAE5"/>
<path d="M0 0H50V12.6059H0V0Z" fill="#474F54"/>
<path d="M25 0H50V12.6059H25V0Z" fill="#32393F"/>
<path d="M6.06094 4.72712H8.93984V7.87881H6.06094V4.72712ZM11.8187 4.72712H14.6977V7.87881H11.8187V4.72712ZM17.5758 4.72712H20.4547V7.87881H17.5758V4.72712Z" fill="#FF637B"/>
<path d="M35.6063 34.3241V52H26.8398V48.9856H23.918V52H15.1516V34.3241L24.0344 26.7881H26.4602L35.6063 34.3241Z" fill="#FF637B"/>
<path d="M9.09062 18.1212H41.6664V21.2729H9.09062V18.1212Z" fill="#DADAE5"/>
<path d="M25 18.1212H40.9094V21.2729H25V18.1212Z" fill="#C9C9D3"/>
<path d="M35.6063 34.3241V52H26.5148V48.9856H25V26.7881H26.1211L35.6063 34.3241Z" fill="#E63950"/>
<path d="M23.4852 37.0305H26.5148V40.1822H23.4852V37.0305Z" fill="#EFEFF4"/>
<path d="M25 37.0305H26.5148V40.1822H25V37.0305Z" fill="#DADAE5"/>
<path d="M39.3937 37.1954L37.4781 39.3941L25.3789 28.4042L13.2789 39.3941L11.3633 37.1954L25.3789 24.4246L39.3937 37.1954Z" fill="#676E74"/>
<path d="M25 24.4246L39.3937 37.1954L37.4266 39.3941L25 28.4042V24.4246Z" fill="#474F54"/>
</svg>
