<svg width="44" height="50" viewBox="0 0 44 50" fill="none" xmlns="http://www.w3.org/2000/svg">
<g clip-path="url(#clip0_1_147)">
<path d="M44 0V32.2266L41.4219 35.2539H2.57812L0 32.2266V0H44Z" fill="#474F54"/>
<path d="M44 0V32.2266L41.4219 35.2539H22V0H44Z" fill="#32393F"/>
<path d="M15.5547 39.7461H28.4453V48.5352H15.5547V39.7461Z" fill="#DADAE5"/>
<path d="M22 39.7461H28.4453V48.5352H22V39.7461Z" fill="#C9C9D3"/>
<path d="M0 32.2266H44V41.2109H0V32.2266Z" fill="#EFEFF4"/>
<path d="M22 32.2266H44V41.2109H22V32.2266Z" fill="#DADAE5"/>
<path d="M10.3984 47.0703H33.6016V50H10.3984V47.0703Z" fill="#EFEFF4"/>
<path d="M22 47.0703H33.6016V50H22V47.0703Z" fill="#DADAE5"/>
<path d="M14.2656 5.85938C9.29087 5.85938 5.24219 10.4602 5.24219 16.1133C5.24219 21.7664 9.29087 26.3672 14.2656 26.3672C19.2404 26.3672 23.2891 21.7664 23.2891 16.1133C23.2891 10.4602 19.2404 5.85938 14.2656 5.85938ZM14.2656 20.5078C13.2403 20.5066 12.2573 20.0432 11.5323 19.2193C10.8073 18.3954 10.3995 17.2784 10.3984 16.1133C10.3995 14.9482 10.8073 13.8311 11.5323 13.0072C12.2573 12.1834 13.2403 11.72 14.2656 11.7188C15.2909 11.72 16.2739 12.1834 16.9989 13.0072C17.7239 13.8311 18.1317 14.9482 18.1328 16.1133C18.1317 17.2784 17.7239 18.3954 16.9989 19.2193C16.2739 20.0432 15.2909 20.5066 14.2656 20.5078Z" fill="#549EF2"/>
<path d="M31.0234 5.85938H38.8438V8.78906H31.0234V5.85938ZM25.8672 5.85938H28.4453V8.78906H25.8672V5.85938ZM31.0234 17.5781H38.8438V20.5078H31.0234V17.5781ZM25.8672 17.5781H28.4453V20.5078H25.8672V17.5781ZM25.8672 11.7188H38.8438V14.6484H25.8672V11.7188ZM25.8672 23.4375H38.8438V26.3672H25.8672V23.4375Z" fill="#377FD2"/>
</g>
<defs>
<clipPath id="clip0_1_147">
<rect width="44" height="50" fill="white"/>
</clipPath>
</defs>
</svg>
