<svg width="42" height="34" viewBox="0 0 42 34" fill="none" xmlns="http://www.w3.org/2000/svg">
<g clip-path="url(#clip0_1_125)">
<path d="M17.3086 27.957H24.6914V34H17.3086V27.957Z" fill="#676E74"/>
<path d="M21 27.957H24.6914V34H21V27.957Z" fill="#333637"/>
<path d="M14.8477 24.9688H27.1523V29.9492H14.8477V24.9688Z" fill="#4C545A"/>
<path d="M21 24.9688H27.1523V29.9492H21V24.9688Z" fill="#52585C"/>
<path d="M29.5391 19.5102C28.0133 20.5264 27.1523 21.9603 27.1523 23.4547V24.9688H14.8477V23.4547C14.8477 21.9406 14.0352 20.5264 12.682 19.6695C9.36009 17.5775 7.46484 14.4303 7.46484 11.0234C7.46195 9.39371 7.90905 7.78407 8.77346 6.31222C9.63786 4.84037 10.8977 3.54353 12.4609 2.51653C14.8969 0.922781 17.8749 0 21 0C21.9594 0 22.9438 0.0796875 23.9039 0.239062C29.2195 1.13581 33.4031 4.72813 34.3383 9.09128C35.175 13.0757 33.4031 16.9803 29.5391 19.5102Z" fill="#FFDA2D"/>
<path d="M29.5391 19.5102C28.0133 20.5264 27.1523 21.9603 27.1523 23.4547V24.9688H21V0C21.9594 0 22.9438 0.0796875 23.9039 0.239062C29.2195 1.13581 33.4031 4.72813 34.3383 9.09128C35.175 13.0757 33.4031 16.9803 29.5391 19.5102Z" fill="#FDBF00"/>
<path d="M12.3867 23.9727H29.6133V25.9648H12.3867V23.9727Z" fill="#676E74"/>
<path d="M26.2211 5.38846L27.9608 6.7968L25.3496 8.91011L23.6099 7.50177L26.2211 5.38846Z" fill="#FF9100"/>
<path d="M16.6504 13.1362L18.3901 14.5446L15.7789 16.6584L14.0392 15.2501L16.6504 13.1362ZM19.7695 15.0078H22.2305V17.9961H19.7695V15.0078Z" fill="#FDBF00"/>
<path d="M25.3496 13.1362L27.9608 15.2501L26.2211 16.6584L23.6099 14.5446L25.3496 13.1362ZM25.9219 10.0273H29.6133V12.0195H25.9219V10.0273Z" fill="#FF9100"/>
<path d="M15.7789 5.38847L18.3901 7.50231L16.6504 8.91012L14.0392 6.79681L15.7789 5.38847ZM12.3867 10.0273H16.0781V12.0195H12.3867V10.0273ZM19.7695 4.05078H22.2305V7.03906H19.7695V4.05078Z" fill="#FDBF00"/>
<path d="M0 10.0274H5.00391V12.0195H0V10.0274ZM4.32141 7.86783L0.547969 5.87564L1.91297 4.21814L5.68641 6.21033L4.32141 7.86783ZM1.91297 17.8288L0.547969 16.1713L4.32141 14.1791L5.68641 15.8366L1.91297 17.8288Z" fill="#FFDA2D"/>
<path d="M36.9961 10.0274H42V12.0195H36.9961V10.0274ZM40.087 17.8288L36.3136 15.8366L37.6786 14.1791L41.452 16.1713L40.087 17.8288ZM37.6786 7.86783L36.3136 6.21033L40.087 4.21814L41.452 5.87564L37.6786 7.86783Z" fill="#FDBF00"/>
<path d="M21 4.05078H22.2305V7.03906H21V4.05078ZM21 15.0078H22.2305V17.9961H21V15.0078Z" fill="#FF9100"/>
<path d="M21 23.9727H29.6133V25.9648H21V23.9727Z" fill="#333637"/>
<path d="M21 6.04297C17.6039 6.04297 14.8477 8.27422 14.8477 11.0234C14.8477 13.7727 17.6039 16.0039 21 16.0039C24.3961 16.0039 27.1523 13.7727 27.1523 11.0234C27.1523 8.27422 24.3961 6.04297 21 6.04297Z" fill="#FDBF00"/>
<path d="M21 16.0039V6.04297C24.3961 6.04297 27.1523 8.27422 27.1523 11.0234C27.1523 13.7727 24.3961 16.0039 21 16.0039Z" fill="#FF9100"/>
<path d="M19.7695 10.0273H22.2305V12.0195H19.7695V10.0273Z" fill="#FFDA2D"/>
<path d="M21 10.0273H22.2305V12.0195H21V10.0273Z" fill="#FDBF00"/>
</g>
<defs>
<clipPath id="clip0_1_125">
<rect width="42" height="34" fill="white"/>
</clipPath>
</defs>
</svg>
