<svg width="47" height="48" viewBox="0 0 47 48" fill="none" xmlns="http://www.w3.org/2000/svg">
<g clip-path="url(#clip0_1_111)">
<path d="M41.7433 5.3685C34.7477 -1.80375 23.4559 -1.77525 16.4603 5.3685C10.5669 11.388 9.52044 20.6985 13.8716 27.8707L12.0261 29.7832L11.0303 34.3912L14.125 37.5517L17.8651 35.7457L19.7099 33.8332C23.1338 36.0029 27.1769 36.9227 31.1789 36.4425C35.1808 35.9623 38.905 34.1105 41.7433 31.1895C48.7662 24.045 48.7383 12.513 41.7433 5.3685Z" fill="#676E74"/>
<path d="M17.8651 35.7457L19.7099 33.8332C23.1338 36.0029 27.1769 36.9227 31.1788 36.4425C35.1808 35.9623 38.905 34.1105 41.7433 31.1895C48.7662 24.045 48.7383 12.513 41.7433 5.3685L12.1774 35.5635L14.125 37.5518L17.8651 35.7457Z" fill="#474F54"/>
<path d="M39.8127 7.34025C38.4077 5.90159 36.7381 4.7607 34.9 3.98316C33.0619 3.20562 31.0914 2.80676 29.1018 2.8095C20.7358 2.8095 13.9531 9.735 13.9531 18.279C13.9505 20.311 14.3411 22.3235 15.1024 24.2009C15.8638 26.0782 16.9808 27.7834 18.3895 29.2185C19.7947 30.657 21.4644 31.7977 23.3027 32.5751C25.1409 33.3525 27.1115 33.7513 29.1011 33.7485C37.4671 33.7485 44.2483 26.823 44.2483 18.279C44.251 16.2471 43.8604 14.2347 43.0991 12.3574C42.3377 10.4802 41.2206 8.77513 39.8119 7.34025H39.8127Z" fill="#64E1DC"/>
<path d="M44.249 18.279C44.2517 16.2471 43.8612 14.2347 43.0998 12.3574C42.3385 10.4802 41.2214 8.77513 39.8127 7.34025L18.3909 29.2177C19.7958 30.6565 21.4652 31.7975 23.3032 32.5753C25.1412 33.3531 27.1115 33.7523 29.1011 33.75C37.4671 33.75 44.2483 26.8237 44.2483 18.2797L44.249 18.279Z" fill="#00C8C8"/>
<path d="M41.3005 17.5575C41.1654 17.3273 39.1121 13.872 35.9535 11.2815C34.0221 9.69675 31.678 8.4345 29.1018 8.4345C22.3147 8.4345 17.1212 17.1863 16.9039 17.5583L16.4809 18.279L16.9031 18.9998C17.0382 19.2315 19.0916 22.6868 22.2494 25.2773C24.1815 26.8612 26.5256 28.1235 29.1011 28.1235C35.8889 28.1235 41.0824 19.3725 41.3005 18.9998L41.7221 18.2798L41.3005 17.5583V17.5575Z" fill="#EFEFF4"/>
<path d="M41.3005 18.9998L41.722 18.2798L41.3005 17.5583C41.1654 17.3273 39.1121 13.872 35.9535 11.2815L22.2501 25.2765C24.1815 26.8613 26.5256 28.1235 29.1018 28.1235C35.8889 28.1235 41.0824 19.3725 41.2998 18.9998H41.3005Z" fill="#DADAE5"/>
<path d="M32.0217 15.297C31.6388 14.9045 31.1838 14.593 30.6827 14.3807C30.1816 14.1683 29.6443 14.0592 29.1018 14.0595C28.0064 14.0607 26.9562 14.5056 26.1816 15.2967C25.407 16.0877 24.9714 17.1603 24.9702 18.279C24.9702 19.4423 25.4336 20.4975 26.1819 21.261C26.5649 21.6535 27.0199 21.9648 27.521 22.1772C28.0221 22.3896 28.5593 22.4988 29.1018 22.4985C30.1971 22.4971 31.2471 22.0521 32.0215 21.2611C32.7959 20.47 33.2315 19.3976 33.2327 18.279C33.2327 17.1165 32.77 16.0613 32.0217 15.297Z" fill="#64E1DC"/>
<path d="M33.2327 18.279C33.2327 17.1165 32.77 16.0612 32.0217 15.297L26.1819 21.261C26.5648 21.6535 27.0199 21.9649 27.521 22.1773C28.0221 22.3896 28.5593 22.4988 29.1018 22.4985C30.1971 22.4971 31.2471 22.0521 32.0215 21.2611C32.7959 20.47 33.2315 19.3976 33.2327 18.279Z" fill="#00C8C8"/>
<path d="M30.0756 17.2845C29.9155 17.1204 29.7183 16.9992 29.5014 16.9317C29.2845 16.8641 29.0546 16.8523 28.8322 16.8973C28.6097 16.9422 28.4016 17.0425 28.2262 17.1894C28.0508 17.3362 27.9136 17.5249 27.8268 17.7389C27.74 17.9528 27.7063 18.1854 27.7286 18.4158C27.7508 18.6463 27.8285 18.8676 27.9546 19.0601C28.0808 19.2525 28.2515 19.4102 28.4516 19.5191C28.6517 19.6281 28.875 19.6849 29.1018 19.6845C29.3739 19.684 29.6397 19.6013 29.8658 19.4468C30.0919 19.2923 30.2682 19.0728 30.3723 18.8161C30.4765 18.5594 30.5039 18.277 30.4511 18.0044C30.3983 17.7318 30.2676 17.4813 30.0756 17.2845Z" fill="#676E74"/>
<path d="M30.4788 18.279C30.4788 17.8912 30.3245 17.5395 30.0749 17.2845L28.1288 19.2735C28.3215 19.4696 28.5668 19.603 28.8337 19.657C29.1006 19.7109 29.3771 19.6829 29.6285 19.5765C29.8798 19.4702 30.0947 19.2902 30.246 19.0593C30.3973 18.8284 30.4783 18.5569 30.4788 18.279Z" fill="#474F54"/>
<path d="M14.932 32.7503L12.0261 29.7825L0 42.0368L2.91914 45.0188L5.83902 48L17.8651 35.7458L14.932 32.7503Z" fill="#575C60"/>
<path d="M17.8651 35.7457L14.9321 32.7502L2.91914 45.0187L5.83902 48L17.8651 35.7457Z" fill="#333637"/>
</g>
<defs>
<clipPath id="clip0_1_111">
<rect width="47" height="48" fill="white"/>
</clipPath>
</defs>
</svg>
