<svg width="1128" height="100" viewBox="0 0 1128 100" fill="none" xmlns="http://www.w3.org/2000/svg">
<g clip-path="url(#clip0_3964_54659)">
<path d="M0 0H1128V92C1128 96.4183 1124.42 100 1120 100H7.99998C3.5817 100 0 96.4183 0 92V0Z" fill="#E4ECF4"/>
<path opacity="0.25" d="M1185.84 -181.773L1430.62 -96.3643L1061.87 117.814L991.172 -63.5852L1185.84 -181.773Z" stroke="#417AAE" stroke-width="3"/>
<path opacity="0.25" d="M567.831 -264.056L1027.67 -103.608L336.396 297.899L203.569 -42.9059L567.831 -264.056Z" stroke="#417AAE" stroke-width="3"/>
<path opacity="0.25" d="M85.761 -237.204L386.695 -132.201L-66.3959 130.964L-153.317 -92.0554L85.761 -237.204Z" stroke="#417AAE" stroke-width="3.22802"/>
<path opacity="0.45" d="M1158.96 196.918L1612.09 -66.2719L1309.94 -171.699L1071.67 -27.041L1158.96 196.918Z" fill="#1E62A1" fill-opacity="0.12"/>
<path opacity="0.45" d="M2.05201 10.0909L455.186 -253.099L153.035 -358.527L-85.2354 -213.869L2.05201 10.0909Z" fill="#1E62A1" fill-opacity="0.08"/>
<path opacity="0.45" d="M219.055 733.718L1023.94 266.221L487.241 78.9538L64.0092 335.906L219.055 733.718Z" fill="#1E62A1" fill-opacity="0.08"/>
<path opacity="0.45" d="M479.408 282.021L1284.3 -185.476L747.594 -372.744L324.362 -115.792L479.408 282.021Z" fill="#1E62A1" fill-opacity="0.08"/>
</g>
<defs>
<clipPath id="clip0_3964_54659">
<path d="M0 0H1128V92C1128 96.4183 1124.42 100 1120 100H7.99998C3.5817 100 0 96.4183 0 92V0Z" fill="white"/>
</clipPath>
</defs>
</svg>
