<svg width="24" height="16" viewBox="0 0 24 16" fill="none" xmlns="http://www.w3.org/2000/svg">
<path d="M2.79102 7.20117H3.56445C3.94336 7.20117 4.25586 7.13867 4.50195 7.01367C4.75195 6.88477 4.9375 6.71094 5.05859 6.49219C5.18359 6.26953 5.24609 6.01953 5.24609 5.74219C5.24609 5.41406 5.19141 5.13867 5.08203 4.91602C4.97266 4.69336 4.80859 4.52539 4.58984 4.41211C4.37109 4.29883 4.09375 4.24219 3.75781 4.24219C3.45312 4.24219 3.18359 4.30273 2.94922 4.42383C2.71875 4.54102 2.53711 4.70898 2.4043 4.92773C2.27539 5.14648 2.21094 5.4043 2.21094 5.70117H1.12695C1.12695 5.26758 1.23633 4.87305 1.45508 4.51758C1.67383 4.16211 1.98047 3.87891 2.375 3.66797C2.77344 3.45703 3.23438 3.35156 3.75781 3.35156C4.27344 3.35156 4.72461 3.44336 5.11133 3.62695C5.49805 3.80664 5.79883 4.07617 6.01367 4.43555C6.22852 4.79102 6.33594 5.23438 6.33594 5.76562C6.33594 5.98047 6.28516 6.21094 6.18359 6.45703C6.08594 6.69922 5.93164 6.92578 5.7207 7.13672C5.51367 7.34766 5.24414 7.52148 4.91211 7.6582C4.58008 7.79102 4.18164 7.85742 3.7168 7.85742H2.79102V7.20117ZM2.79102 8.0918V7.44141H3.7168C4.25977 7.44141 4.70898 7.50586 5.06445 7.63477C5.41992 7.76367 5.69922 7.93555 5.90234 8.15039C6.10938 8.36523 6.25391 8.60156 6.33594 8.85938C6.42188 9.11328 6.46484 9.36719 6.46484 9.62109C6.46484 10.0195 6.39648 10.373 6.25977 10.6816C6.12695 10.9902 5.9375 11.252 5.69141 11.4668C5.44922 11.6816 5.16406 11.8438 4.83594 11.9531C4.50781 12.0625 4.15039 12.1172 3.76367 12.1172C3.39258 12.1172 3.04297 12.0645 2.71484 11.959C2.39062 11.8535 2.10352 11.7012 1.85352 11.502C1.60352 11.2988 1.4082 11.0508 1.26758 10.7578C1.12695 10.4609 1.05664 10.123 1.05664 9.74414H2.14062C2.14062 10.041 2.20508 10.3008 2.33398 10.5234C2.4668 10.7461 2.6543 10.9199 2.89648 11.0449C3.14258 11.166 3.43164 11.2266 3.76367 11.2266C4.0957 11.2266 4.38086 11.1699 4.61914 11.0566C4.86133 10.9395 5.04688 10.7637 5.17578 10.5293C5.30859 10.2949 5.375 10 5.375 9.64453C5.375 9.28906 5.30078 8.99805 5.15234 8.77148C5.00391 8.54102 4.79297 8.37109 4.51953 8.26172C4.25 8.14844 3.93164 8.0918 3.56445 8.0918H2.79102Z" fill="#2063A0"/>
<line opacity="0.4" x1="0.5" y1="14.5" x2="7.5" y2="14.5" stroke="#2063A0"/>
<path d="M16.8334 1.33325H11.5001C10.7667 1.33325 10.1667 1.93325 10.1667 2.66659V13.3333C10.1667 14.0666 10.7667 14.6666 11.5001 14.6666H19.5001C20.2334 14.6666 20.8334 14.0666 20.8334 13.3333V5.33325L16.8334 1.33325ZM19.5001 13.3333H11.5001V2.66659H16.8334V5.33325H19.5001V13.3333ZM15.5001 11.3333C14.7667 11.3333 14.1667 10.7333 14.1667 9.99992V6.33325C14.1667 6.14659 14.3134 5.99992 14.5001 5.99992C14.6867 5.99992 14.8334 6.14659 14.8334 6.33325V9.99992H16.1667V6.33325C16.1667 5.41325 15.4201 4.66659 14.5001 4.66659C13.5801 4.66659 12.8334 5.41325 12.8334 6.33325V9.99992C12.8334 11.4733 14.0267 12.6666 15.5001 12.6666C16.9734 12.6666 18.1667 11.4733 18.1667 9.99992V7.33325H16.8334V9.99992C16.8334 10.7333 16.2334 11.3333 15.5001 11.3333Z" fill="#6392BD"/>
</svg>
