<svg width="24" height="16" viewBox="0 0 24 16" fill="none" xmlns="http://www.w3.org/2000/svg">
<path d="M2.58008 7.93945L1.71289 7.7168L2.14062 3.46875H6.51758V4.4707H3.06055L2.80273 6.79102C2.95898 6.70117 3.15625 6.61719 3.39453 6.53906C3.63672 6.46094 3.91406 6.42188 4.22656 6.42188C4.62109 6.42188 4.97461 6.49023 5.28711 6.62695C5.59961 6.75977 5.86523 6.95117 6.08398 7.20117C6.30664 7.45117 6.47656 7.75195 6.59375 8.10352C6.71094 8.45508 6.76953 8.84766 6.76953 9.28125C6.76953 9.69141 6.71289 10.0684 6.59961 10.4121C6.49023 10.7559 6.32422 11.0566 6.10156 11.3145C5.87891 11.5684 5.59766 11.7656 5.25781 11.9062C4.92188 12.0469 4.52539 12.1172 4.06836 12.1172C3.72461 12.1172 3.39844 12.0703 3.08984 11.9766C2.78516 11.8789 2.51172 11.7324 2.26953 11.5371C2.03125 11.3379 1.83594 11.0918 1.68359 10.7988C1.53516 10.502 1.44141 10.1543 1.40234 9.75586H2.43359C2.48047 10.0762 2.57422 10.3457 2.71484 10.5645C2.85547 10.7832 3.03906 10.9492 3.26562 11.0625C3.49609 11.1719 3.76367 11.2266 4.06836 11.2266C4.32617 11.2266 4.55469 11.1816 4.75391 11.0918C4.95312 11.002 5.12109 10.873 5.25781 10.7051C5.39453 10.5371 5.49805 10.334 5.56836 10.0957C5.64258 9.85742 5.67969 9.58984 5.67969 9.29297C5.67969 9.02344 5.64258 8.77344 5.56836 8.54297C5.49414 8.3125 5.38281 8.11133 5.23438 7.93945C5.08984 7.76758 4.91211 7.63477 4.70117 7.54102C4.49023 7.44336 4.24805 7.39453 3.97461 7.39453C3.61133 7.39453 3.33594 7.44336 3.14844 7.54102C2.96484 7.63867 2.77539 7.77148 2.58008 7.93945Z" fill="#2063A0"/>
<line opacity="0.4" x1="0.5" y1="14.5" x2="7.5" y2="14.5" stroke="#2063A0"/>
<path d="M16.8334 1.33325H11.5001C10.7667 1.33325 10.1667 1.93325 10.1667 2.66659V13.3333C10.1667 14.0666 10.7667 14.6666 11.5001 14.6666H19.5001C20.2334 14.6666 20.8334 14.0666 20.8334 13.3333V5.33325L16.8334 1.33325ZM19.5001 13.3333H11.5001V2.66659H16.8334V5.33325H19.5001V13.3333ZM15.5001 11.3333C14.7667 11.3333 14.1667 10.7333 14.1667 9.99992V6.33325C14.1667 6.14659 14.3134 5.99992 14.5001 5.99992C14.6867 5.99992 14.8334 6.14659 14.8334 6.33325V9.99992H16.1667V6.33325C16.1667 5.41325 15.4201 4.66659 14.5001 4.66659C13.5801 4.66659 12.8334 5.41325 12.8334 6.33325V9.99992C12.8334 11.4733 14.0267 12.6666 15.5001 12.6666C16.9734 12.6666 18.1667 11.4733 18.1667 9.99992V7.33325H16.8334V9.99992C16.8334 10.7333 16.2334 11.3333 15.5001 11.3333Z" fill="#6392BD"/>
</svg>
