<svg width="86" height="75" viewBox="0 0 86 75" fill="none" xmlns="http://www.w3.org/2000/svg">
<path d="M85.8205 35.2578C85.0428 42.3618 81.5693 50.6948 74.3234 54.6857C63.3756 60.7184 64.5177 69.4757 42.9701 73.9218C39.6109 74.6159 36.4148 74.9589 33.3946 74.9963C31.7703 75.0174 30.1968 74.9475 28.6776 74.7947C14.88 73.426 5.41873 65.2864 1.7749 55.2368C-3.02009 42.0188 5.68884 33.0242 11.4755 27.5881C17.2603 22.1536 21.1905 5.62582 42.3374 1.10983C45.5625 0.422184 48.8655 0.0239044 52.1794 0.00114561C59.7408 -0.0541258 68.0382 1.8885 73.8538 6.27933C74.2907 6.60933 74.7149 6.95234 75.1301 7.3051C83.2335 14.2303 86.881 25.5755 85.8205 35.2594V35.2578Z" fill="#F5F5F6"/>
<path d="M22.8868 66.0406C22.8868 66.2594 23.264 66.4759 23.9969 66.678C24.7299 66.8801 25.8042 67.0637 27.1584 67.2184C28.5127 67.3731 30.1205 67.4958 31.89 67.5795C33.6594 67.6632 35.5559 67.7062 37.4712 67.7062C39.3864 67.7062 41.2829 67.6632 43.0524 67.5795C44.8218 67.4958 46.4296 67.3731 47.7839 67.2184C49.1382 67.0637 50.2124 66.8801 50.9454 66.678C51.6783 66.4759 52.0555 66.2594 52.0555 66.0406C52.0555 65.8219 51.6783 65.6053 50.9454 65.4032C50.2124 65.2011 49.1382 65.0175 47.7839 64.8629C46.4296 64.7082 44.8218 64.5855 43.0524 64.5018C41.2829 64.4181 39.3864 64.375 37.4712 64.375C35.5559 64.375 33.6594 64.4181 31.89 64.5018C30.1205 64.5855 28.5127 64.7082 27.1584 64.8629C25.8042 65.0175 24.7299 65.2011 23.9969 65.4032C23.264 65.6053 22.8868 65.8219 22.8868 66.0406Z" fill="#BCD0E3"/>
<path d="M48.5363 50.1898L58.9432 32.0812" stroke="#114D84" stroke-linecap="round" stroke-linejoin="round"/>
<path d="M43.7263 50.1898C43.7263 50.8215 43.8507 51.447 44.0925 52.0306C44.3342 52.6142 44.6885 53.1445 45.1352 53.5911C45.5818 54.0378 46.1121 54.3921 46.6957 54.6338C47.2793 54.8756 47.9048 55 48.5365 55C49.1682 55 49.7937 54.8756 50.3773 54.6338C50.9609 54.3921 51.4912 54.0378 51.9378 53.5911C52.3845 53.1445 52.7388 52.6142 52.9805 52.0306C53.2223 51.447 53.3467 50.8215 53.3467 50.1898C53.3467 48.9141 52.8399 47.6906 51.9378 46.7885C51.0357 45.8864 49.8123 45.3796 48.5365 45.3796C47.2608 45.3796 46.0373 45.8864 45.1352 46.7885C44.2331 47.6906 43.7263 48.9141 43.7263 50.1898Z" fill="white" stroke="#114D84" stroke-linecap="round" stroke-linejoin="round"/>
<path d="M58.9432 32.0812L40.6603 15.6406" stroke="#114D84" stroke-linecap="round" stroke-linejoin="round"/>
<path d="M69.3502 50.1898L58.9433 32.0812" stroke="#114D84" stroke-linecap="round" stroke-linejoin="round"/>
<path d="M54.133 32.0812C54.133 33.3569 54.6398 34.5804 55.5419 35.4825C56.444 36.3846 57.6675 36.8914 58.9432 36.8914C60.219 36.8914 61.4425 36.3846 62.3445 35.4825C63.2466 34.5804 63.7534 33.3569 63.7534 32.0812C63.7534 30.8055 63.2466 29.582 62.3445 28.6799C61.4425 27.7778 60.219 27.271 58.9432 27.271C57.6675 27.271 56.444 27.7778 55.5419 28.6799C54.6398 29.582 54.133 30.8055 54.133 32.0812Z" fill="#B0D9FF" stroke="#114D84" stroke-linecap="round" stroke-linejoin="round"/>
<path d="M64.5399 50.1898C64.5399 50.8215 64.6643 51.447 64.906 52.0306C65.1477 52.6142 65.5021 53.1445 65.9487 53.5911C66.3954 54.0378 66.9257 54.3921 67.5093 54.6338C68.0929 54.8756 68.7184 55 69.3501 55C69.9817 55 70.6072 54.8756 71.1908 54.6338C71.7744 54.3921 72.3047 54.0378 72.7514 53.5911C73.1981 53.1445 73.5524 52.6142 73.7941 52.0306C74.0358 51.447 74.1603 50.8215 74.1603 50.1898C74.1603 49.5581 74.0358 48.9326 73.7941 48.349C73.5524 47.7654 73.1981 47.2351 72.7514 46.7885C72.3047 46.3418 71.7744 45.9875 71.1908 45.7458C70.6072 45.504 69.9817 45.3796 69.3501 45.3796C68.7184 45.3796 68.0929 45.504 67.5093 45.7458C66.9257 45.9875 66.3954 46.3418 65.9487 46.7885C65.5021 47.2351 65.1477 47.7654 64.906 48.349C64.6643 48.9326 64.5399 49.5581 64.5399 50.1898Z" fill="#E5D050" stroke="#114D84" stroke-linecap="round" stroke-linejoin="round"/>
<path d="M32.7841 50.1898L22.3772 32.0812" stroke="#114D84" stroke-linecap="round" stroke-linejoin="round"/>
<path d="M27.974 50.1898C27.974 51.4655 28.4808 52.689 29.3829 53.5911C30.285 54.4932 31.5085 55 32.7842 55C34.06 55 35.2835 54.4932 36.1856 53.5911C37.0877 52.689 37.5944 51.4655 37.5944 50.1898C37.5944 48.9141 37.0877 47.6906 36.1856 46.7885C35.2835 45.8864 34.06 45.3796 32.7842 45.3796C31.5085 45.3796 30.285 45.8864 29.3829 46.7885C28.4808 47.6906 27.974 48.9141 27.974 50.1898Z" fill="white" stroke="#114D84" stroke-linecap="round" stroke-linejoin="round"/>
<path d="M22.3772 32.0812L40.6602 15.6406" stroke="#114D84" stroke-linecap="round" stroke-linejoin="round"/>
<path d="M11.9705 50.1898L22.3774 32.0812" stroke="#114D84" stroke-linecap="round" stroke-linejoin="round"/>
<path d="M35.8501 15.6406C35.8501 16.2723 35.9745 16.8978 36.2163 17.4814C36.458 18.065 36.8123 18.5953 37.259 19.0419C37.7056 19.4886 38.2359 19.8429 38.8195 20.0846C39.4031 20.3264 40.0286 20.4508 40.6603 20.4508C41.292 20.4508 41.9175 20.3264 42.5011 20.0846C43.0847 19.8429 43.615 19.4886 44.0616 19.0419C44.5083 18.5953 44.8626 18.065 45.1043 17.4814C45.3461 16.8978 45.4705 16.2723 45.4705 15.6406C45.4705 15.0089 45.3461 14.3834 45.1043 13.7998C44.8626 13.2162 44.5083 12.6859 44.0616 12.2393C43.615 11.7926 43.0847 11.4383 42.5011 11.1966C41.9175 10.9548 41.292 10.8304 40.6603 10.8304C40.0286 10.8304 39.4031 10.9548 38.8195 11.1966C38.2359 11.4383 37.7056 11.7926 37.259 12.2393C36.8123 12.6859 36.458 13.2162 36.2163 13.7998C35.9745 14.3834 35.8501 15.0089 35.8501 15.6406Z" fill="#E5D050" stroke="#114D84" stroke-linecap="round" stroke-linejoin="round"/>
<path d="M17.5671 32.0812C17.5671 33.3569 18.0738 34.5804 18.9759 35.4825C19.878 36.3846 21.1015 36.8914 22.3773 36.8914C23.653 36.8914 24.8765 36.3846 25.7786 35.4825C26.6807 34.5804 27.1875 33.3569 27.1875 32.0812C27.1875 30.8055 26.6807 29.582 25.7786 28.6799C24.8765 27.7778 23.653 27.271 22.3773 27.271C21.1015 27.271 19.878 27.7778 18.9759 28.6799C18.0738 29.582 17.5671 30.8055 17.5671 32.0812Z" fill="#B0D9FF" stroke="#114D84" stroke-linecap="round" stroke-linejoin="round"/>
<path d="M7.16022 50.1898C7.16022 51.4655 7.66701 52.689 8.56909 53.5911C9.47118 54.4932 10.6947 55 11.9704 55C13.2462 55 14.4697 54.4932 15.3717 53.5911C16.2738 52.689 16.7806 51.4655 16.7806 50.1898C16.7806 48.9141 16.2738 47.6906 15.3717 46.7885C14.4697 45.8864 13.2462 45.3796 11.9704 45.3796C10.6947 45.3796 9.47118 45.8864 8.56909 46.7885C7.66701 47.6906 7.16022 48.9141 7.16022 50.1898Z" fill="white" stroke="#114D84" stroke-linecap="round" stroke-linejoin="round"/>
</svg>
