<svg width="86" height="75" viewBox="0 0 86 75" fill="none" xmlns="http://www.w3.org/2000/svg">
<path d="M85.8205 35.2578C85.0428 42.3618 81.5693 50.6948 74.3234 54.6857C63.3756 60.7184 64.5177 69.4757 42.9701 73.9218C39.6109 74.6159 36.4148 74.9589 33.3946 74.9963C31.7703 75.0174 30.1968 74.9475 28.6776 74.7947C14.88 73.426 5.41873 65.2864 1.7749 55.2368C-3.02009 42.0188 5.68884 33.0242 11.4755 27.5881C17.2603 22.1536 21.1905 5.62582 42.3374 1.10983C45.5625 0.422184 48.8655 0.0239044 52.1794 0.00114561C59.7408 -0.0541258 68.0382 1.8885 73.8538 6.27933C74.2907 6.60933 74.7149 6.95234 75.1301 7.3051C83.2335 14.2303 86.881 25.5755 85.8205 35.2594V35.2578Z" fill="#F5F5F6"/>
<path d="M22.8868 66.0406C22.8868 66.2594 23.264 66.4759 23.9969 66.678C24.7299 66.8801 25.8042 67.0637 27.1584 67.2184C28.5127 67.3731 30.1205 67.4958 31.89 67.5795C33.6594 67.6632 35.5559 67.7062 37.4712 67.7062C39.3864 67.7062 41.2829 67.6632 43.0524 67.5795C44.8218 67.4958 46.4296 67.3731 47.7839 67.2184C49.1382 67.0637 50.2124 66.8801 50.9454 66.678C51.6783 66.4759 52.0555 66.2594 52.0555 66.0406C52.0555 65.8219 51.6783 65.6053 50.9454 65.4032C50.2124 65.2011 49.1382 65.0175 47.7839 64.8629C46.4296 64.7082 44.8218 64.5855 43.0524 64.5018C41.2829 64.4181 39.3864 64.375 37.4712 64.375C35.5559 64.375 33.6594 64.4181 31.89 64.5018C30.1205 64.5855 28.5127 64.7082 27.1584 64.8629C25.8042 65.0175 24.7299 65.2011 23.9969 65.4032C23.264 65.6053 22.8868 65.8219 22.8868 66.0406Z" fill="#BCD0E3"/>
<path d="M26.2688 59.0253C21.5609 56.1146 17.937 51.4136 16.515 45.6049C13.6528 33.8472 20.8418 21.9941 32.5979 19.1322L32.5984 19.1321C44.3427 16.2581 56.1965 23.4582 59.0708 35.2155C61.3334 44.498 57.3123 53.8399 49.7352 58.7648L49.3043 59.0316C47.398 60.2117 45.287 61.1189 42.9885 61.6754L42.9874 61.6756C37.0449 63.128 31.086 62.0148 26.2695 59.0257L26.2688 59.0253Z" fill="#C5DEFD" stroke="#114D84"/>
<path d="M44.1099 37.8386C44.1099 41.3254 41.2826 44.1527 37.7958 44.1527C34.3091 44.1527 31.4818 41.3254 31.4818 37.8386C31.4818 34.3518 34.3091 31.5245 37.7958 31.5245C41.2826 31.5245 44.1099 34.3518 44.1099 37.8386Z" fill="white" stroke="#114D84"/>
<path d="M42.9885 61.6691L42.9874 61.6694C37.1417 63.098 31.2802 62.0441 26.5059 59.1641V56.6407C26.5059 50.4973 31.5017 46.5233 37.8018 46.5233C44.0998 46.5233 49.0613 50.4954 49.0613 56.6407V57.1407H49.0675V59.1699C47.2237 60.2796 45.1922 61.1356 42.9885 61.6691Z" fill="white" stroke="#114D84"/>
<rect x="43.8868" y="13.5" width="30" height="13.94" rx="3.5" fill="white" stroke="#114D84"/>
<path d="M65.2523 23.8117C65.0646 23.8119 64.8787 23.775 64.7053 23.7031C64.5319 23.6313 64.3744 23.5259 64.2418 23.3929L62.3377 21.4854C62.2051 21.3527 62.0999 21.1952 62.0281 21.0219C61.9563 20.8486 61.9194 20.6628 61.9194 20.4752C61.9194 20.2876 61.9563 20.1018 62.0281 19.9285C62.0999 19.7551 62.2051 19.5976 62.3377 19.465C62.4703 19.3323 62.6278 19.2271 62.8011 19.1553C62.9744 19.0835 63.1601 19.0465 63.3477 19.0465C63.5352 19.0465 63.721 19.0835 63.8943 19.1553C64.0675 19.2271 64.225 19.3323 64.3576 19.465L65.2483 20.3559L68.2055 17.2971C68.4733 17.0292 68.8366 16.8786 69.2154 16.8786C69.5942 16.8786 69.9575 17.0292 70.2254 17.2971C70.4932 17.565 70.6437 17.9284 70.6437 18.3073C70.6437 18.6862 70.4932 19.0496 70.2254 19.3175L66.2578 23.386C66.1265 23.5197 65.97 23.6261 65.7975 23.6991C65.6249 23.7722 65.4397 23.8104 65.2523 23.8117Z" fill="#E5D050"/>
<path fill-rule="evenodd" clip-rule="evenodd" d="M68.5587 17.6455L65.6048 20.701C65.5123 20.7967 65.3854 20.8512 65.2524 20.8523C65.1193 20.8534 64.9915 20.801 64.8974 20.707L64.0067 19.816C63.9201 19.7295 63.8174 19.6608 63.7043 19.6139C63.5912 19.5671 63.4699 19.5429 63.3475 19.5429C63.2251 19.5429 63.1039 19.5671 62.9908 19.6139C62.8777 19.6608 62.7749 19.7295 62.6883 19.816C62.6018 19.9026 62.5331 20.0054 62.4863 20.1186C62.4394 20.2317 62.4153 20.3529 62.4153 20.4754C62.4153 20.5978 62.4394 20.7191 62.4863 20.8322C62.5331 20.9453 62.6018 21.0481 62.6883 21.1347L64.5927 23.0426C64.6792 23.1292 64.782 23.1981 64.895 23.2449C65.0076 23.2916 65.1283 23.3156 65.2502 23.3157C65.3718 23.3147 65.492 23.2898 65.604 23.2424C65.7161 23.1949 65.8178 23.1258 65.9033 23.039C65.9031 23.0392 65.9035 23.0388 65.9033 23.039L69.8744 18.9668C70.0493 18.7919 70.1475 18.5548 70.1475 18.3075C70.1475 18.0602 70.0493 17.823 69.8745 17.6481C69.6996 17.4733 69.4625 17.375 69.2153 17.375C68.9693 17.375 68.7333 17.4723 68.5587 17.6455ZM67.8545 16.9464C68.2154 16.5854 68.7049 16.3826 69.2153 16.3826C69.7257 16.3826 70.2151 16.5854 70.576 16.9464C70.9369 17.3074 71.1396 17.797 71.1396 18.3075C71.1396 18.8169 70.9378 19.3055 70.5783 19.6662L66.6128 23.7327L66.6115 23.734C66.4343 23.9143 66.2234 24.0578 65.9907 24.1563C65.758 24.2548 65.5081 24.3064 65.2555 24.3081L65.2527 24.3081C64.9996 24.3083 64.7491 24.2586 64.5153 24.1617C64.2816 24.0649 64.0693 23.9228 63.8906 23.7437C63.8906 23.7437 63.8907 23.7438 63.8906 23.7437L61.9868 21.8365C61.8082 21.6578 61.6663 21.4454 61.5696 21.212C61.4729 20.9785 61.4232 20.7282 61.4232 20.4754C61.4232 20.2226 61.4729 19.9723 61.5696 19.7388C61.6664 19.5052 61.8081 19.2931 61.9868 19.1143C62.1655 18.9356 62.3776 18.7938 62.6111 18.6971C62.8446 18.6003 63.0948 18.5505 63.3475 18.5505C63.6002 18.5505 63.8505 18.6003 64.084 18.6971C64.3174 18.7938 64.5296 18.9356 64.7083 19.1143L65.2423 19.6484L67.8545 16.9464Z" fill="#114D84"/>
<path fill-rule="evenodd" clip-rule="evenodd" d="M46.4868 20.47C46.4868 20.0808 46.721 19.7653 47.0098 19.7653H56.8716C57.1605 19.7653 57.3947 20.0808 57.3947 20.47C57.3947 20.8592 57.1605 21.1747 56.8716 21.1747H47.0098C46.721 21.1747 46.4868 20.8592 46.4868 20.47Z" fill="#114D84"/>
<rect x="52.8868" y="32.5" width="30" height="13.9364" rx="3.5" fill="white" stroke="#114D84"/>
<path d="M79.0312 42.0903C79.0865 42.035 79.1305 41.9693 79.1604 41.897C79.1904 41.8247 79.2058 41.7472 79.2058 41.6689C79.2058 41.5906 79.1904 41.5131 79.1604 41.4408C79.1305 41.3685 79.0865 41.3028 79.0312 41.2475L77.3449 39.5614C77.289 39.5055 77.2577 39.4297 77.2577 39.3506C77.2577 39.2715 77.289 39.1957 77.3449 39.1398L79.0312 37.4537C79.0865 37.3984 79.1305 37.3327 79.1604 37.2604C79.1904 37.1881 79.2058 37.1106 79.2058 37.0323C79.2058 36.954 79.1904 36.8765 79.1604 36.8042C79.1305 36.7319 79.0865 36.6662 79.0312 36.6109L77.977 35.5572C77.9217 35.5019 77.856 35.4579 77.7837 35.428C77.7114 35.398 77.6338 35.3826 77.5556 35.3826C77.4773 35.3826 77.3998 35.398 77.3274 35.428C77.2551 35.4579 77.1894 35.5019 77.1341 35.5572L75.4478 37.2425C75.3919 37.2984 75.3161 37.3298 75.237 37.3298C75.158 37.3298 75.0821 37.2984 75.0262 37.2425L73.3399 35.5564C73.2846 35.5011 73.2189 35.4572 73.1466 35.4272C73.0743 35.3972 72.9968 35.3818 72.9185 35.3818C72.8402 35.3818 72.7627 35.3972 72.6904 35.4272C72.6181 35.4572 72.5524 35.5011 72.497 35.5564L71.4433 36.6109C71.3879 36.6662 71.344 36.7319 71.314 36.8042C71.284 36.8765 71.2686 36.954 71.2686 37.0323C71.2686 37.1106 71.284 37.1881 71.314 37.2604C71.344 37.3327 71.3879 37.3984 71.4433 37.4537L73.1314 39.1398C73.1871 39.1958 73.2184 39.2716 73.2184 39.3506C73.2184 39.4296 73.1871 39.5054 73.1314 39.5614L71.4433 41.2475C71.3879 41.3028 71.344 41.3685 71.314 41.4408C71.284 41.5131 71.2686 41.5906 71.2686 41.6689C71.2686 41.7472 71.284 41.8247 71.314 41.897C71.344 41.9693 71.3879 42.035 71.4433 42.0903L72.497 43.1444C72.5524 43.1997 72.6181 43.2437 72.6904 43.2736C72.7627 43.3036 72.8402 43.319 72.9185 43.319C72.9968 43.319 73.0743 43.3036 73.1466 43.2736C73.2189 43.2437 73.2846 43.1997 73.3399 43.1444L75.0262 41.4583C75.0821 41.4024 75.158 41.371 75.237 41.371C75.3161 41.371 75.3919 41.4024 75.4478 41.4583L77.1341 43.1444C77.1894 43.1997 77.2551 43.2437 77.3274 43.2736C77.3998 43.3036 77.4773 43.319 77.5556 43.319C77.6338 43.319 77.7114 43.3036 77.7837 43.2736C77.856 43.2437 77.9217 43.1997 77.977 43.1444L79.0312 42.0903Z" fill="#C5DEFD"/>
<path fill-rule="evenodd" clip-rule="evenodd" d="M73.357 36.1963C73.2182 36.0576 72.9933 36.0576 72.8546 36.1963L72.0831 36.9678C71.9444 37.1065 71.9444 37.3314 72.0831 37.4702L73.4108 38.7978C73.716 39.103 73.716 39.5978 73.4108 39.903L72.0831 41.2307C71.9444 41.3694 71.9444 41.5943 72.0831 41.733L72.8546 42.5045C72.9933 42.6432 73.2182 42.6432 73.357 42.5045L74.6846 41.1769C74.9898 40.8716 75.4846 40.8716 75.7898 41.1769L77.1175 42.5045C77.2562 42.6432 77.4811 42.6432 77.6199 42.5045L78.3913 41.733C78.53 41.5943 78.53 41.3694 78.3913 41.2307L77.0637 39.903C76.7585 39.5978 76.7585 39.103 77.0637 38.7978L78.3913 37.4702C78.53 37.3314 78.53 37.1065 78.3913 36.9678L77.6199 36.1963C77.4811 36.0576 77.2562 36.0576 77.1175 36.1963L75.7898 37.524C75.4846 37.8292 74.9898 37.8292 74.6846 37.524L73.357 36.1963ZM72.3522 35.694C72.7684 35.2778 73.4432 35.2778 73.8593 35.694L75.187 37.0216C75.2147 37.0493 75.2597 37.0493 75.2875 37.0216L76.6151 35.694C77.0313 35.2778 77.706 35.2778 78.1222 35.694L78.8937 36.4654C79.3099 36.8816 79.3099 37.5564 78.8937 37.9725L77.566 39.3002C77.5383 39.3279 77.5383 39.3729 77.566 39.4007L78.8937 40.7283C79.3099 41.1445 79.3099 41.8192 78.8937 42.2354L78.1222 43.0069C77.706 43.4231 77.0313 43.4231 76.6151 43.0069L75.2875 41.6792C75.2597 41.6515 75.2147 41.6515 75.187 41.6792L73.8593 43.0069C73.4432 43.4231 72.7684 43.4231 72.3522 43.0069L71.5808 42.2354C71.1646 41.8192 71.1646 41.1445 71.5808 40.7283L72.9084 39.4007C72.9361 39.3729 72.9361 39.3279 72.9084 39.3002L71.5808 37.9725C71.1646 37.5564 71.1646 36.8816 71.5808 36.4654L72.3522 35.694Z" fill="#A7B6CA"/>
<path fill-rule="evenodd" clip-rule="evenodd" d="M55.4868 39.4682C55.4868 39.0791 55.721 38.7636 56.0098 38.7636H65.8716C66.1605 38.7636 66.3947 39.0791 66.3947 39.4682C66.3947 39.8573 66.1605 40.1727 65.8716 40.1727H56.0098C55.721 40.1727 55.4868 39.8573 55.4868 39.4682Z" fill="#114D84"/>
</svg>
