<svg width="86" height="75" viewBox="0 0 86 75" fill="none" xmlns="http://www.w3.org/2000/svg">
<path d="M85.8205 35.2578C85.0428 42.3618 81.5693 50.6948 74.3234 54.6857C63.3756 60.7184 64.5177 69.4757 42.9701 73.9218C39.6109 74.6159 36.4148 74.9589 33.3946 74.9963C31.7703 75.0174 30.1968 74.9475 28.6776 74.7947C14.88 73.426 5.41873 65.2864 1.7749 55.2368C-3.02009 42.0188 5.68884 33.0242 11.4755 27.5881C17.2603 22.1536 21.1905 5.62582 42.3374 1.10983C45.5625 0.422184 48.8655 0.0239044 52.1794 0.00114561C59.7408 -0.0541258 68.0382 1.8885 73.8538 6.27933C74.2907 6.60933 74.7149 6.95234 75.1301 7.3051C83.2335 14.2303 86.881 25.5755 85.8205 35.2594V35.2578Z" fill="#F5F5F6"/>
<path d="M22.8868 66.0406C22.8868 66.2594 23.264 66.4759 23.9969 66.678C24.7299 66.8801 25.8042 67.0637 27.1584 67.2184C28.5127 67.3731 30.1205 67.4958 31.89 67.5795C33.6594 67.6632 35.5559 67.7062 37.4712 67.7062C39.3864 67.7062 41.2829 67.6632 43.0524 67.5795C44.8218 67.4958 46.4296 67.3731 47.7839 67.2184C49.1382 67.0637 50.2124 66.8801 50.9454 66.678C51.6783 66.4759 52.0555 66.2594 52.0555 66.0406C52.0555 65.8219 51.6783 65.6053 50.9454 65.4032C50.2124 65.2011 49.1382 65.0175 47.7839 64.8629C46.4296 64.7082 44.8218 64.5855 43.0524 64.5018C41.2829 64.4181 39.3864 64.375 37.4712 64.375C35.5559 64.375 33.6594 64.4181 31.89 64.5018C30.1205 64.5855 28.5127 64.7082 27.1584 64.8629C25.8042 65.0175 24.7299 65.2011 23.9969 65.4032C23.264 65.6053 22.8868 65.8219 22.8868 66.0406Z" fill="#BCD0E3"/>
<path d="M28.077 4.06662L69.2154 12.4323L58.9192 63.0641L17.7808 54.6985L28.077 4.06662Z" fill="#C5DEFD"/>
<path fill-rule="evenodd" clip-rule="evenodd" d="M27.9832 4.52786C28.035 4.27312 28.295 4.11095 28.5639 4.16564L68.7284 12.3332C68.9974 12.3879 69.1734 12.6388 69.1216 12.8935L59.013 62.6029C58.9612 62.8576 58.7012 63.0198 58.4322 62.9651L18.2678 54.7975C17.9988 54.7428 17.8228 54.492 17.8746 54.2372L27.9832 4.52786ZM29.3533 5.28678C29.0827 5.23175 28.8187 5.40651 28.7637 5.67711L19.0419 53.4841C18.9869 53.7547 19.1617 54.0187 19.4323 54.0737L57.6429 61.844C57.9135 61.899 58.1775 61.7242 58.2325 61.4536L67.9542 13.6467C68.0093 13.3761 67.8345 13.1121 67.5639 13.0571L29.3533 5.28678Z" fill="#114D84"/>
<path d="M32.1007 8.5885C32.1447 8.37201 32.3559 8.23221 32.5724 8.27623L63.4334 14.5519C63.6498 14.5959 63.7896 14.8071 63.7456 15.0236L55.2176 56.9603C55.1736 57.1768 54.9624 57.3166 54.746 57.2726L23.885 50.9969C23.6685 50.9528 23.5287 50.7417 23.5727 50.5252L32.1007 8.5885Z" fill="white"/>
<path fill-rule="evenodd" clip-rule="evenodd" d="M32.0884 8.64917C32.1392 8.39918 32.3994 8.24106 32.6696 8.296L63.3361 14.5321C63.6063 14.5871 63.7841 14.8343 63.7333 15.0843L55.23 56.8996C55.1791 57.1496 54.9189 57.3077 54.6487 57.2528L23.9822 51.0166C23.7121 50.9617 23.5342 50.7145 23.5851 50.4645L32.0884 8.64917ZM32.9748 9.30079L24.6556 50.2108L54.3436 56.248L62.6628 15.338L32.9748 9.30079Z" fill="#114D84"/>
<path d="M53.1421 8.96644C53.1661 8.8874 53.2044 8.8158 53.2211 8.73348C53.394 7.7893 53.0952 6.79446 52.3892 5.96371C51.6831 5.13296 50.6265 4.53293 49.4473 4.29315C48.2682 4.05336 47.0611 4.19306 46.0867 4.68209C45.1123 5.17111 44.4487 5.97023 44.2391 6.90696C44.2224 6.98927 44.2307 7.07038 44.2209 7.15228L38.8039 6.05071C38.487 5.98627 38.1626 6.02488 37.9022 6.15806C37.6418 6.29123 37.4666 6.50806 37.4152 6.76083L36.6382 10.5819C36.5868 10.8347 36.6633 11.1027 36.8511 11.327C37.0388 11.5513 37.3223 11.7135 37.6392 11.778L57.4009 15.7966C57.7178 15.861 58.0422 15.8224 58.3026 15.6892C58.563 15.5561 58.7382 15.3392 58.7896 15.0865L59.5666 11.2654C59.618 11.0126 59.5414 10.7446 59.3537 10.5203C59.166 10.296 58.8825 10.1338 58.5656 10.0693L53.1421 8.96644Z" fill="#E5D050"/>
<path fill-rule="evenodd" clip-rule="evenodd" d="M45.9899 4.05137C47.0487 3.44313 48.3484 3.24585 49.6085 3.5021C50.8686 3.75835 51.9881 4.44758 52.7252 5.42102C53.4183 6.3363 53.7211 7.43381 53.5806 8.50189L58.2109 9.44348C58.6506 9.53289 59.0405 9.77488 59.2948 10.1162C59.5492 10.4575 59.6471 10.8703 59.5671 11.2636L58.7366 15.3478C58.6566 15.7411 58.4053 16.0828 58.0378 16.2976C57.6703 16.5125 57.2169 16.583 56.7772 16.4936L37.9414 12.6633C37.5017 12.5739 37.1118 12.3319 36.8575 11.9906C36.6031 11.6492 36.5052 11.2365 36.5852 10.8432L37.4157 6.75899C37.4957 6.36568 37.7471 6.02401 38.1145 5.80912C38.482 5.59423 38.9354 5.52374 39.3751 5.61315L43.9992 6.55348C44.287 5.51535 44.9944 4.62327 45.9899 4.05137ZM44.9854 6.97379C44.9835 6.98413 44.9817 7.00067 44.9799 7.03818C44.9797 7.04266 44.9795 7.04782 44.9792 7.05355C44.9777 7.08898 44.9751 7.14641 44.9679 7.20276C44.9511 7.33268 44.8751 7.44818 44.7579 7.52183C44.6408 7.59549 44.4929 7.62073 44.3495 7.59156L39.1863 6.5416C39.0219 6.50817 38.8523 6.53453 38.7149 6.61488C38.5775 6.69523 38.4835 6.82299 38.4536 6.97006L37.6231 11.0543C37.5932 11.2013 37.6298 11.3557 37.7249 11.4833C37.82 11.6109 37.9658 11.7014 38.1302 11.7348L56.966 15.5652C57.1304 15.5986 57.3 15.5722 57.4374 15.4919C57.5748 15.4115 57.6688 15.2838 57.6987 15.1367L58.5292 11.0525C58.5591 10.9054 58.5225 10.7511 58.4274 10.6235C58.3323 10.4958 58.1865 10.4054 58.0221 10.3719L52.8527 9.32071C52.7083 9.29134 52.5813 9.20948 52.5024 9.09481C52.4234 8.98013 52.3996 8.84301 52.4367 8.71641C52.4513 8.6664 52.4701 8.61559 52.4822 8.58321C52.4845 8.57683 52.4867 8.57116 52.4884 8.56635C52.5009 8.53201 52.506 8.51519 52.5085 8.50378C52.6711 7.61872 52.4392 6.69614 51.8625 5.93453C51.2847 5.17159 50.4073 4.63139 49.4197 4.43055C48.4321 4.2297 47.4134 4.38433 46.5835 4.86104C45.7552 5.3369 45.1814 6.09557 44.9854 6.97379Z" fill="#114D84"/>
<path fill-rule="evenodd" clip-rule="evenodd" d="M34.4879 17.5101C34.54 17.2538 35.0559 17.1423 35.6401 17.2611L55.5834 21.3167C56.1676 21.4355 56.599 21.7396 56.5469 21.9959C56.4947 22.2522 55.9789 22.3637 55.3946 22.2449L35.4514 18.1894C34.8671 18.0706 34.4358 17.7665 34.4879 17.5101Z" fill="#114D84"/>
<path fill-rule="evenodd" clip-rule="evenodd" d="M44.6867 22.7595C44.7392 22.5017 45.0139 22.34 45.3005 22.3982L55.0817 24.3873C55.3682 24.4455 55.558 24.7018 55.5056 24.9595C55.4532 25.2173 55.1784 25.3791 54.8918 25.3208L45.1106 23.3318C44.8241 23.2735 44.6343 23.0173 44.6867 22.7595Z" fill="#114D84"/>
<path fill-rule="evenodd" clip-rule="evenodd" d="M42.3587 35.4675C42.4111 35.2097 42.6912 35.049 42.9842 35.1086L52.9879 37.1429C53.2809 37.2025 53.476 37.4598 53.4236 37.7176C53.3711 37.9754 53.0911 38.136 52.798 38.0764L42.7944 36.0422C42.5014 35.9826 42.3063 35.7253 42.3587 35.4675Z" fill="#114D84"/>
<path fill-rule="evenodd" clip-rule="evenodd" d="M31.9396 30.0415C31.9917 29.7852 32.5183 29.6759 33.1159 29.7974L53.5126 33.9451C54.1101 34.0666 54.5522 34.3729 54.5001 34.6293C54.448 34.8856 53.9213 34.9949 53.3238 34.8734L32.9271 30.7256C32.3296 30.6041 31.8875 30.2978 31.9396 30.0415Z" fill="#114D84"/>
<path fill-rule="evenodd" clip-rule="evenodd" d="M39.2632 48.0194C39.3156 47.7616 39.5979 47.6014 39.8936 47.6615L49.9886 49.7144C50.2843 49.7745 50.4816 50.0323 50.4292 50.2901C50.3767 50.5478 50.0945 50.7081 49.7988 50.6479L39.7038 48.5951C39.408 48.5349 39.2108 48.2772 39.2632 48.0194Z" fill="#114D84"/>
<path fill-rule="evenodd" clip-rule="evenodd" d="M29.3913 42.5728C29.4434 42.3164 29.9745 42.208 30.5774 42.3306L51.1605 46.5163C51.7635 46.6389 52.2101 46.9461 52.1579 47.2024C52.1058 47.4588 51.5747 47.5672 50.9718 47.4445L30.3887 43.2589C29.7857 43.1363 29.3391 42.8291 29.3913 42.5728Z" fill="#114D84"/>
</svg>
