<svg width="60" height="42" viewBox="0 0 60 42" fill="none" xmlns="http://www.w3.org/2000/svg">
<g clip-path="url(#clip0_11_16420)">
<path d="M57.3375 29.4737C57.338 25.1189 56.4364 20.8192 54.6991 16.89C52.9617 12.9607 50.4325 9.5016 47.2971 6.76622C44.1616 4.03083 40.4994 2.08859 36.5789 1.08192C32.6585 0.0752559 28.5792 0.0296941 24.6404 0.948579C20.7015 1.86746 17.0029 3.72749 13.8158 6.39226C10.6287 9.05702 8.03394 12.4589 6.22179 16.3485C4.40965 20.2381 3.42609 24.5167 3.34323 28.8706C3.26038 33.2245 4.08034 37.5432 5.74298 41.51H54.9314C56.5197 37.7297 57.3401 33.6255 57.3375 29.4737Z" fill="#1D7478" fill-opacity="0.2"/>
<path d="M29.0746 5.73108C28.5238 5.73099 27.9784 5.84816 27.4695 6.0759C26.9606 6.30364 26.4982 6.63749 26.1088 7.05838C25.9897 7.18708 22.1253 11.3406 22.0375 11.4985C20.11 12.8111 18.5284 14.6389 17.4457 16.8052C16.363 18.9715 15.8157 21.4031 15.8569 23.8648H15.277C14.9992 23.865 14.7327 23.9843 14.5361 24.1966C14.3396 24.4089 14.229 24.6968 14.2287 24.9971V28.3979H45.6911V23.6867C45.6914 21.3285 45.2617 18.9933 44.4267 16.8146C43.5917 14.6359 42.3677 12.6563 40.8247 10.9889C39.2816 9.32149 37.4497 7.99894 35.4336 7.09679C33.4175 6.19464 31.2567 5.73057 29.0746 5.73108Z" fill="white"/>
<path d="M29.0746 5.73108C28.5238 5.73099 27.9784 5.84816 27.4695 6.0759C26.9606 6.30364 26.4982 6.63749 26.1088 7.05838C25.9897 7.18708 22.1253 11.3406 22.0375 11.4985C20.11 12.8111 18.5284 14.6389 17.4457 16.8052C16.363 18.9715 15.8157 21.4031 15.8569 23.8648H15.277C14.9992 23.865 14.7327 23.9843 14.5361 24.1966C14.3396 24.4089 14.229 24.6968 14.2287 24.9971V28.3979H45.6911V23.6867C45.6914 21.3285 45.2617 18.9933 44.4267 16.8146C43.5917 14.6359 42.3677 12.6563 40.8247 10.9889C39.2816 9.32149 37.4497 7.99894 35.4336 7.09679C33.4175 6.19464 31.2567 5.73057 29.0746 5.73108Z" stroke="#020064" stroke-linecap="round" stroke-linejoin="round"/>
<path d="M13.7039 28.3985C13.292 28.4072 12.8997 28.5902 12.6112 28.9081C12.3228 29.2259 12.1612 29.6534 12.1612 30.0986C12.1612 30.5438 12.3228 30.9713 12.6112 31.2892C12.8997 31.607 13.292 31.79 13.7039 31.7987H35.1796C35.879 31.7983 36.5627 31.5744 37.1446 31.1552L40.9729 28.3979L13.7039 28.3985Z" fill="white" stroke="#020064" stroke-linecap="round" stroke-linejoin="round"/>
<path d="M48.8368 28.3986H14.2233V24.9971C14.2234 24.6967 14.3339 24.4087 14.5305 24.1964C14.7271 23.9841 14.9937 23.8648 15.2716 23.8648H31.0028" stroke="#020064" stroke-linecap="round" stroke-linejoin="round"/>
<path d="M22.0379 11.4998C24.2305 9.93554 26.8038 9.11087 29.4311 9.13059C31.3889 9.12842 33.324 9.583 35.1044 10.4633C36.8847 11.3436 38.4682 12.6288 39.7467 14.2311" stroke="#020064" stroke-linecap="round" stroke-linejoin="round"/>
<path d="M42.5469 22.7585C42.5468 23.2014 42.6275 23.6401 42.7843 24.0493C42.9411 24.4586 43.171 24.8304 43.4608 25.1436C43.7506 25.4569 44.0947 25.7053 44.4734 25.8748C44.8521 26.0442 45.258 26.1314 45.6679 26.1313H45.6919V23.6873C45.687 22.2544 45.5232 20.8272 45.2041 19.4363C44.4665 19.5544 43.7926 19.9547 43.305 20.5644C42.8175 21.1741 42.5481 21.9527 42.5469 22.7585Z" fill="#058C97" stroke="#020064" stroke-linecap="round" stroke-linejoin="round"/>
<path d="M16.6655 18.7031L21.3311 20.6707C21.8462 20.8741 22.4145 20.8513 22.9143 20.6073C23.414 20.3632 23.8055 19.9173 24.0047 19.3652C24.2039 18.813 24.1951 18.1984 23.9801 17.6532C23.7651 17.108 23.3611 16.6754 22.8546 16.4483L18.7159 14.7004C17.8297 15.9012 17.137 17.2542 16.6655 18.7031Z" fill="#058C97"/>
<path d="M16.6655 18.7031L21.3311 20.6707C21.8462 20.8741 22.4145 20.8513 22.9143 20.6073C23.414 20.3632 23.8055 19.9173 24.0047 19.3652C24.2039 18.813 24.1951 18.1984 23.9801 17.6532C23.7651 17.108 23.3611 16.6754 22.8546 16.4483L18.7159 14.7004C17.8297 15.9012 17.137 17.2542 16.6655 18.7031Z" stroke="#020064" stroke-linecap="round" stroke-linejoin="round"/>
<path d="M19.4318 39.1102C19.4318 39.256 19.7152 39.4004 20.2658 39.5351C20.8164 39.6698 21.6234 39.7921 22.6408 39.8952C23.6582 39.9983 24.866 40.0801 26.1953 40.1359C27.5245 40.1917 28.9492 40.2204 30.388 40.2204C31.8268 40.2204 33.2515 40.1917 34.5808 40.1359C35.9101 40.0801 37.1179 39.9983 38.1353 39.8952C39.1526 39.7921 39.9597 39.6698 40.5103 39.5351C41.0609 39.4004 41.3443 39.256 41.3443 39.1102C41.3443 38.8158 40.1899 38.5334 38.1353 38.3252C36.0806 38.117 33.2938 38 30.388 38C27.4823 38 24.6955 38.117 22.6408 38.3252C20.5861 38.5334 19.4318 38.8158 19.4318 39.1102Z" fill="#058C97" fill-opacity="0.15"/>
</g>
<defs>
<clipPath id="clip0_11_16420">
<rect width="60" height="42" fill="white"/>
</clipPath>
</defs>
</svg>
