<svg width="60" height="44" viewBox="0 0 60 44" fill="none" xmlns="http://www.w3.org/2000/svg">
<g opacity="0.25">
<path d="M33.1613 4.75533H40.2078C40.2078 4.75533 41.8599 4.06886 41.6461 2.24973C41.4323 0.430602 38.9379 1.94654 38.9379 1.94654C38.9379 1.94654 39.6946 -0.591944 37.278 0.128844C34.8627 0.848202 34.6268 3.36524 34.6268 3.36524C34.6268 3.36524 31.4534 2.75457 33.1613 4.75676V4.75533Z" fill="#047079"/>
<path d="M45.4233 17.8378H50.7069C50.7069 17.8378 51.9461 17.3227 51.7856 15.9578C51.6252 14.5929 49.7546 15.7303 49.7546 15.7303C49.7546 15.7303 50.3213 13.8259 48.5096 14.367C46.6978 14.9065 46.5212 16.7946 46.5212 16.7946C46.5212 16.7946 44.1414 16.3364 45.4218 17.8378H45.4233Z" fill="#047079"/>
<path d="M0.20551 16.6473H11.1385C12.5392 16.6473 12.8767 14.5657 11.5544 14.0782C11.5375 14.0718 11.5207 14.0654 11.5038 14.0603C12.9671 12.7668 9.75594 10.0378 6.26991 13.816C6.54113 12.557 3.44203 13.0112 2.49458 14.7295C2.15827 13.601 -0.798594 15.5611 0.207921 16.6486L0.20551 16.6473Z" fill="#047079"/>
</g>
<path d="M59 39.9667C59 41.3842 47.3594 42.5334 33 42.5334C18.6406 42.5334 7 41.3842 7 39.9667C7 38.5492 18.6406 37.4 33 37.4C47.3594 37.4 59 38.5492 59 39.9667Z" fill="#058C97" fill-opacity="0.1"/>
<path d="M14.127 29.882C14.127 29.882 13.5681 30.4418 13.5703 30.9848C13.5725 31.5278 13.9719 32.7381 14.043 32.8768C14.1141 33.0156 14.805 33.7035 17.0537 34.3639C19.302 35.0218 24.0384 35.9096 25.5991 36.2251C27.1597 36.5407 29.0477 37.5974 33.9537 37.175C38.8622 36.7522 47.7504 33.2914 47.8139 31.6065C47.8773 29.9216 46.8786 29.4585 41.4449 26.6126L14.1246 29.8824L14.127 29.882Z" fill="#047079"/>
<path d="M14.0803 29.2408C14.0803 29.2408 13.5214 29.8005 13.5236 30.3435C13.5258 30.8865 13.9252 32.0969 13.9963 32.2356C14.0675 32.3743 14.7584 33.0623 17.007 33.7227C19.2554 34.3806 23.9918 35.2684 25.5524 35.5839C27.1131 35.8994 29.001 36.9561 33.907 36.5337C38.8155 36.111 47.7037 32.6502 47.7672 30.9653C47.8307 29.2804 46.8319 28.8173 41.3982 25.9714L14.0779 29.2412L14.0803 29.2408Z" fill="#44A9B1"/>
<path d="M16.4505 18.7421L16.4351 18.7531L19.2898 15.4732L19.2634 15.4838L19.2634 15.4838L19.2634 15.4838L19.2633 15.4838L19.2629 15.484L19.2605 15.485L19.2501 15.4894C19.2407 15.4935 19.2265 15.4997 19.2079 15.5084C19.1707 15.5257 19.1161 15.5524 19.0479 15.5894C18.9117 15.6634 18.7215 15.7786 18.5084 15.9423C18.0822 16.2697 17.5653 16.7899 17.202 17.5619L17.2027 17.5622L17.196 17.5727L16.4607 18.7262L16.4505 18.7421ZM19.3065 15.4501L19.3064 15.4501L16.4351 18.7531L16.435 18.7532L16.4347 18.7534L16.4329 18.7547L16.4255 18.7601C16.4188 18.765 16.4088 18.7725 16.3957 18.7824C16.3695 18.8022 16.3312 18.832 16.2831 18.8711C16.187 18.9494 16.052 19.065 15.898 19.2137C15.5896 19.5115 15.2067 19.9398 14.9049 20.4642L14.9048 20.4643C14.6018 20.9888 14.466 21.4444 14.4058 21.767C14.3757 21.9284 14.3645 22.0566 14.3607 22.1436C14.3588 22.1871 14.3588 22.2203 14.3592 22.2421C14.3594 22.2531 14.3598 22.2612 14.36 22.2663L14.3603 22.2718L14.3604 22.2728L14.3604 22.2728L14.3604 22.2729L14.3604 22.2729L14.3604 22.273L14.3622 22.2964L14.353 22.3182L14.353 22.3182L14.353 22.3182L14.3529 22.3185L14.3525 22.3195L14.3506 22.3239L14.3433 22.3419C14.3368 22.358 14.3272 22.3821 14.315 22.4136C14.2907 22.4766 14.2562 22.5694 14.2154 22.6877C14.1338 22.9244 14.0276 23.263 13.9294 23.6695C13.7327 24.4836 13.5693 25.5648 13.6962 26.6438C13.8241 27.731 14.1311 28.8549 14.4071 29.7088C14.545 30.1353 14.6748 30.4936 14.7701 30.7451C14.8178 30.8708 14.8568 30.9698 14.8838 31.0373C14.8944 31.0637 14.9031 31.0853 14.9099 31.1017L14.9162 31.1041C14.9496 31.1164 14.9993 31.1345 15.0641 31.1577C15.1937 31.2042 15.3839 31.2709 15.6258 31.3518C16.1095 31.5137 16.7996 31.7325 17.6243 31.9599C19.2747 32.4148 21.4608 32.9031 23.6107 33.0399L23.6108 33.0399C25.7606 33.178 27.9553 32.9622 29.6143 32.7113C30.4433 32.5858 31.1377 32.4518 31.6246 32.3492C31.8681 32.2978 32.0596 32.2544 32.1902 32.2238C32.2555 32.2085 32.3055 32.1964 32.3391 32.1881L32.3771 32.1788L32.3866 32.1764L32.389 32.1758L32.3895 32.1756L32.3897 32.1756L32.4138 32.1694L32.4381 32.1754L34.493 32.6751L42.2223 29.4815L42.2213 29.4714C42.2161 29.4177 42.208 29.3384 42.1968 29.2362C42.1745 29.0317 42.1397 28.7357 42.0902 28.3699C41.9911 27.6383 41.8329 26.628 41.5963 25.5134C41.1222 23.2795 40.337 20.6443 39.0942 18.9868C38.5291 18.234 38.1762 17.8197 37.9658 17.5945C37.8606 17.482 37.7918 17.4174 37.7504 17.3818C37.7298 17.364 37.7163 17.3536 37.7089 17.3482L37.7026 17.3438L37.6777 17.33L37.6638 17.3027C37.383 16.7535 36.9351 16.3787 36.5532 16.1403C36.3627 16.0213 36.19 15.9372 36.0652 15.8829C36.0029 15.8557 35.9526 15.8361 35.9183 15.8234C35.9011 15.817 35.8879 15.8124 35.8792 15.8094L35.8695 15.8061L35.8673 15.8054L35.8669 15.8052L35.8669 15.8052L35.8669 15.8052L35.8669 15.8052L35.851 15.8002L35.8375 15.7902C35.408 15.4729 34.8022 15.1586 34.2995 14.9223C34.049 14.8045 33.8257 14.7068 33.665 14.6386C33.5847 14.6045 33.5201 14.5778 33.4756 14.5596L33.4246 14.5389L33.4115 14.5337L33.4082 14.5324L33.4074 14.532L33.4072 14.532L33.4072 14.532L33.4431 14.4402L33.4072 14.532L33.3861 14.5236L33.3706 14.5071L33.3706 14.5071L33.3705 14.5071L33.3705 14.507L33.3702 14.5066L33.3685 14.5049L33.3612 14.4973C33.3547 14.4906 33.3447 14.4804 33.3315 14.4671C33.3049 14.4407 33.2652 14.4019 33.2129 14.3536C33.1084 14.2569 32.9541 14.122 32.756 13.9703C32.3594 13.6667 31.7893 13.2973 31.0936 13.0319L31.0935 13.0319C30.9922 12.9931 30.7833 12.9652 30.4761 12.9528C30.174 12.9405 29.79 12.9435 29.3484 12.9598C28.4655 12.9924 27.3575 13.0778 26.2237 13.1987C25.0899 13.3196 23.9316 13.4757 22.9479 13.6494C21.9609 13.8236 21.1596 14.0139 20.7329 14.2005C20.3529 14.3668 19.9969 14.6765 19.7326 14.9503C19.6013 15.0864 19.4944 15.2119 19.4204 15.3032C19.3834 15.3489 19.3547 15.3859 19.3353 15.4114L19.3134 15.4406L19.308 15.4479L19.3067 15.4497L19.3065 15.4501Z" fill="#44A9B1" stroke="#047079" stroke-width="0.2"/>
<path opacity="0.8" d="M34.5822 32.8681L32.4739 32.3572C31.6734 25.1188 28.6618 19.0238 24.5674 16.6496C20.6763 14.3969 19.224 15.2815 19.163 15.3213C19.2036 15.2659 19.8645 14.3694 20.647 14.0283C20.763 13.9783 20.9046 13.9273 21.0667 13.8762C32.9942 14.6888 34.5847 32.8677 34.5847 32.8677L34.5822 32.8681Z" fill="#047079"/>
<path opacity="0.8" d="M14.378 22.3161C14.9296 21.4799 15.5117 20.9659 16.5145 20.7724C18.3376 20.4116 20.1373 21.4615 21.3837 22.744C22.0185 23.4043 22.5435 24.1711 22.9423 25.0001L22.7443 24.9353L24.9043 23.7174L24.8375 23.8929C23.9084 21.4011 21.9015 19.0773 19.2051 18.6436C18.3206 18.4858 17.4097 18.5365 16.5279 18.7022C17.4007 18.473 18.3176 18.3929 19.2238 18.5061C22.0214 18.8449 24.1512 21.2262 25.1098 23.7993L25.1518 23.915L25.043 23.9747L22.8823 25.1876L22.7499 25.261C22.3554 24.4081 21.8407 23.6061 21.1951 22.924C20.0013 21.6703 18.3066 20.6234 16.5358 20.9041C15.5487 21.0461 14.9682 21.5366 14.3776 22.3135L14.378 22.3161Z" fill="white"/>
<path d="M33.2959 14.2872C36.5057 16.5866 38.6006 20.5973 39.5434 24.3744C39.7908 25.3453 39.9641 26.3507 40.0806 27.3459C40.1194 27.6776 40.1457 28.0138 40.1742 28.347C39.3404 23.1388 37.3389 17.8284 33.2959 14.2872Z" fill="#047079"/>
<path opacity="0.8" d="M35.7803 15.543C36.9006 16.6715 37.7199 18.0828 38.3701 19.5316C38.5439 19.9322 38.7152 20.37 38.8617 20.7799L38.8344 20.7523L39.4528 21.0204L39.3902 21.0741C39.2943 20.7279 39.1726 20.3828 39.0439 20.0439C38.6627 19.0241 38.1878 18.0414 37.6576 17.0904C38.4331 18.3581 39.0877 19.7091 39.5039 21.1418C39.4459 21.1186 38.8471 20.8608 38.7753 20.8318C38.6809 20.5879 38.5938 20.3403 38.4973 20.0993C38.3679 19.7737 38.1933 19.3679 38.0443 19.0504C37.4371 17.7951 36.7202 16.5741 35.7756 15.5463L35.7803 15.543Z" fill="white"/>
<g opacity="0.8">
<path d="M15.7878 31.5042C15.5647 30.7108 15.4008 29.901 15.2469 29.0898C16.1504 29.3166 17.0496 29.5674 17.9278 29.8863C17.0571 29.746 16.1999 29.5386 15.3456 29.3152L15.4652 29.2017C15.5993 29.9636 15.7187 30.7303 15.7875 31.5016L15.7878 31.5042Z" fill="white"/>
</g>
<g opacity="0.8">
<path d="M23.419 33.2446C23.1974 32.4608 23.0352 31.6633 22.8827 30.8619C23.895 30.9345 24.9077 31.0278 25.9127 31.1924C24.9399 31.1998 23.9655 31.1425 22.9961 31.0663L23.0972 30.9505C23.2311 31.7105 23.3524 32.4723 23.419 33.2446Z" fill="white"/>
</g>
</svg>
