<svg width="33" height="32" viewBox="0 0 33 32" fill="none" xmlns="http://www.w3.org/2000/svg">
<rect x="0.333344" width="32" height="32" rx="16" fill="#388E3C"/>
<path d="M12.8683 16.9331H10.779V16.0898H12.8683C13.2729 16.0898 13.6006 16.0254 13.8512 15.8965C14.1019 15.7676 14.2845 15.5885 14.3991 15.3594C14.5172 15.1302 14.5763 14.8688 14.5763 14.5752C14.5763 14.3066 14.5172 14.0542 14.3991 13.8179C14.2845 13.5815 14.1019 13.3918 13.8512 13.2485C13.6006 13.1017 13.2729 13.0283 12.8683 13.0283H11.0207V20H9.98405V12.1797H12.8683C13.4591 12.1797 13.9587 12.2817 14.3669 12.4858C14.7751 12.6899 15.0848 12.9728 15.2961 13.3345C15.5073 13.6925 15.613 14.1025 15.613 14.5645C15.613 15.0658 15.5073 15.4937 15.2961 15.8481C15.0848 16.2026 14.7751 16.473 14.3669 16.6592C13.9587 16.8418 13.4591 16.9331 12.8683 16.9331ZM19.2173 12.8726L16.6284 20H15.5703L18.5513 12.1797H19.2334L19.2173 12.8726ZM21.3872 20L18.793 12.8726L18.7769 12.1797H19.459L22.4507 20H21.3872ZM21.253 17.105V17.9536H16.8594V17.105H21.253Z" fill="white"/>
</svg>
